<?xml version="1.0" encoding="UTF-8" standalone="no"?>
<!DOCTYPE svg PUBLIC "-//W3C//DTD SVG 1.1//EN" "http://www.w3.org/Graphics/SVG/1.1/DTD/svg11.dtd">
<svg width="100%" height="100%" viewBox="0 0 275 300" version="1.1" xmlns="http://www.w3.org/2000/svg" xmlns:xlink="http://www.w3.org/1999/xlink" xml:space="preserve" xmlns:serif="http://www.serif.com/" style="fill-rule:evenodd;clip-rule:evenodd;stroke-linejoin:round;stroke-miterlimit:2;">
    <g transform="matrix(0.925425,2.26664e-16,-2.26664e-16,0.925425,-1.71117,-1.30699)">
        <g>
            <path d="M3,2L71,2L71,20.1C71,30 71.3,38 71.8,37.8C87.5,29.9 99.2,24.6 105.5,22.5C130.8,14.3 164.5,13.8 190.2,21.4C215,28.6 234.4,40.2 253,58.9C278.6,84.5 293.4,116.3 296.5,152.2L297.2,160L234.9,160L236.5,157C238.7,152.8 238.4,150.1 235.5,148.8C232.4,147.4 228.8,148.8 220.6,154.9C200.4,169.8 191,174.2 191,168.7C191,165.9 191.7,164.9 206.5,146.5C220.5,129 222.5,126.3 223.2,123.3C223.9,120.8 221.6,117 219.4,117C215,117 206.9,123.2 189.5,139.7C183.5,145.5 177.5,150.9 176.3,151.7C173.9,153.3 172,152.7 172,150.5C172,149.2 184.8,127.6 192.3,116.5C202.5,101.2 204.8,95.6 202.3,92.1C198.6,86.8 191.7,91 180.7,105.3C152.9,141.2 152.3,141.9 149.9,140.4C148.2,139.4 149,137 157.1,118.7C171,87.3 172.5,79.9 165.3,79.2C161.4,78.8 160.6,79.8 147.4,101.5C124.8,138.8 119.7,145.8 114.4,147.4C111.8,148.2 110.7,146.9 108.6,140.4C104.6,128.1 94.7,116 88.6,116C82.4,116 81.9,118.5 85.1,133C88,146.1 89.1,154.7 88.4,157.6L87.8,160L3,160L3,2ZM28.7,179.8C42.3,179.6 61.6,179.6 71.5,179.8C92.2,180.1 92,180 92,189C92,207.1 103.7,224.8 120.8,232.8C127.6,235.9 129.7,236.4 138.6,236.8C151.1,237.4 156.8,235.7 164.9,229.2C172.3,223.2 175.7,219.4 183.9,208C190.4,199 200.2,188.8 208.2,182.7C212.2,179.6 209,179.7 271.3,179.9L297,180L296.8,252.2L296.5,324.5L262.8,324.8L229,325L229,306C229,295.6 228.8,287 228.6,287C228.4,287 225.1,288.8 221.4,291C198.2,304.6 165.2,311.6 137,309C96.6,305.3 60.6,285.9 35.5,254.3C19.4,234 8,208.3 4.6,184.8L3.9,180L28.7,179.8Z" style="fill:rgb(242,169,0);"/>
        </g>
    </g>
</svg>
