<svg version="1.1" id="Layer_1" xmlns="http://www.w3.org/2000/svg" xmlns:xlink="http://www.w3.org/1999/xlink" x="0px" y="0px"
	 width="100%" viewBox="0 0 2500 2500" enable-background="new 0 0 2500 2500" xml:space="preserve">
<path fill="#FFFFFF" opacity="1.000000" stroke="none" 
	d="
M2502.000000,886.000000 
	C2502.000000,1425.333374 2502.000000,1963.666626 2502.000000,2502.000000 
	C1668.666626,2502.000000 835.333313,2502.000000 2.000000,2502.000000 
	C2.000000,1668.666626 2.000000,835.333313 2.000000,2.000000 
	C835.333313,2.000000 1668.666626,2.000000 2502.000000,2.000000 
	C2502.000000,296.333344 2502.000000,590.666687 2502.000000,886.000000 
z"/>
<path fill="#F2F2F2" opacity="1.000000" stroke="none" 
	d="
M2271.991211,1355.440796 
	C2268.473633,1371.907837 2268.542969,1387.994385 2265.583740,1403.498901 
	C2262.297852,1420.713257 2260.599121,1438.170898 2256.657471,1455.281250 
	C2253.096191,1470.741455 2250.096191,1486.331665 2246.475586,1501.795166 
	C2242.026123,1520.798340 2236.070557,1539.359619 2230.997314,1558.173584 
	C2226.151855,1576.142944 2220.075928,1593.736206 2213.598877,1611.104126 
	C2204.948242,1634.300415 2196.487793,1657.626465 2185.437012,1679.891846 
	C2177.627197,1695.627686 2170.898193,1711.902222 2163.017334,1727.600342 
	C2155.714600,1742.147461 2147.961670,1756.510498 2139.621094,1770.485229 
	C2126.723633,1792.094604 2113.972656,1813.811157 2099.725830,1834.591797 
	C2083.030518,1858.943726 2065.454834,1882.610107 2047.156006,1905.806152 
	C2014.921021,1946.668579 1978.620361,1983.705566 1941.047974,2019.465942 
	C1926.252319,2033.548096 1910.253662,2046.539917 1894.278198,2059.458496 
	C1878.541382,2072.184082 1862.586426,2084.589600 1846.293945,2096.539795 
	C1831.617310,2107.304443 1816.250854,2117.126465 1801.230835,2127.425781 
	C1785.336670,2138.324707 1768.663818,2147.921631 1751.870728,2157.339355 
	C1729.301758,2169.996094 1706.585693,2182.370361 1683.130859,2193.319824 
	C1667.237671,2200.739258 1651.267822,2207.999756 1635.240234,2215.124023 
	C1629.485474,2217.681885 1623.472656,2219.664307 1617.557617,2221.855469 
	C1600.489990,2228.177246 1583.505493,2234.741699 1566.306152,2240.683350 
	C1554.404907,2244.795166 1542.265381,2248.264893 1530.118652,2251.608154 
	C1510.703979,2256.951660 1491.341187,2262.621826 1471.685303,2266.911133 
	C1451.374390,2271.343018 1431.266968,2276.931885 1410.293091,2278.307129 
	C1402.180542,2278.838623 1394.300171,2281.924072 1385.923096,2282.587402 
	C1373.111328,2283.602051 1360.436646,2286.254639 1347.667847,2287.939941 
	C1340.252319,2288.918701 1340.050415,2288.678955 1340.030518,2296.221191 
	C1339.954468,2324.887207 1339.998413,2353.553467 1339.997192,2382.219482 
	C1339.997070,2384.886230 1340.066040,2387.554932 1339.979858,2390.218994 
	C1339.736938,2397.731689 1339.693237,2397.952393 1331.855347,2397.964600 
	C1287.189575,2398.033936 1242.523560,2398.036133 1197.858032,2397.961670 
	C1190.259155,2397.948975 1190.060913,2397.726807 1190.037354,2389.937012 
	C1189.948364,2360.604492 1190.021362,2331.271484 1189.986572,2301.938721 
	C1189.975830,2292.902100 1189.767944,2293.579102 1181.071533,2291.792969 
	C1171.143188,2289.753662 1161.119019,2291.075439 1151.325562,2289.773438 
	C1137.236572,2287.900146 1122.838013,2288.567627 1109.010010,2284.657227 
	C1102.901367,2282.929932 1096.541504,2283.685791 1090.269775,2282.721680 
	C1072.642822,2280.012939 1055.019287,2277.230225 1037.514893,2273.897217 
	C1023.935608,2271.311768 1010.398193,2268.403564 996.951599,2264.982178 
	C985.759705,2262.134766 974.603516,2259.112061 963.402710,2256.278809 
	C945.769165,2251.819092 928.225281,2247.034668 910.980469,2241.288818 
	C896.887451,2236.593018 882.976685,2231.321777 869.109314,2225.983154 
	C844.742615,2216.602295 821.015625,2205.731934 797.106567,2195.266113 
	C774.583069,2185.406982 753.422607,2173.269287 731.841064,2161.822021 
	C701.912415,2145.947754 673.411499,2127.635498 645.584717,2108.350586 
	C620.511475,2090.973389 596.664246,2071.996582 573.112610,2052.559570 
	C550.061157,2033.535400 528.139709,2013.371948 506.735138,1992.609497 
	C485.332703,1971.848999 465.346985,1949.751343 445.978821,1927.059937 
	C423.800476,1901.076294 403.229462,1873.856934 383.519806,1846.029541 
	C369.350891,1826.024902 355.686798,1805.502319 343.738129,1784.125977 
	C328.874237,1757.534180 313.877716,1730.996704 301.025909,1703.230591 
	C288.077484,1675.255493 275.069489,1647.309570 264.656982,1618.353638 
	C257.073120,1597.263672 249.109161,1576.249023 243.496277,1554.399536 
	C238.981598,1536.825073 233.792557,1519.420410 229.297989,1501.805298 
	C224.717072,1483.851929 221.748749,1465.637329 217.591171,1447.669556 
	C214.597015,1434.729858 212.076584,1421.680908 210.927109,1408.646484 
	C209.732147,1395.096313 206.828217,1381.849609 205.605026,1368.302368 
	C203.942245,1349.886963 204.131729,1331.244141 200.262634,1313.024170 
	C199.718658,1310.462402 200.011902,1307.711182 200.010880,1305.047607 
	C199.998077,1271.714966 199.720566,1238.378418 200.163834,1205.051758 
	C200.308197,1194.197510 202.360184,1183.369873 203.504211,1172.526489 
	C203.747971,1170.215820 203.941360,1167.890747 203.981384,1165.569336 
	C204.267410,1148.975220 206.498642,1132.653809 209.302994,1116.284790 
	C211.247635,1104.933960 212.379257,1093.346680 213.649521,1081.862671 
	C214.715027,1072.229980 218.073364,1063.237793 219.309387,1053.686401 
	C220.832108,1041.919434 223.087357,1030.159912 226.155167,1018.699463 
	C231.530472,998.618652 236.228470,978.358154 242.539719,958.510498 
	C247.051651,944.321411 251.003662,929.968262 256.189880,915.978821 
	C262.393677,899.244629 268.066711,882.341309 274.848572,865.790405 
	C285.925018,838.758911 297.843353,812.150208 310.976654,786.074951 
	C319.631866,768.890564 329.362061,752.293335 338.675201,735.475525 
	C346.235870,721.822327 354.495575,708.605530 362.664459,695.400757 
	C374.326263,676.549866 387.767914,658.799927 400.452942,640.582214 
	C411.644287,624.509583 424.274719,609.549194 436.615143,594.384583 
	C445.168884,583.873169 454.111816,573.657410 463.095764,563.482849 
	C477.351501,547.337830 492.032867,531.635254 507.478424,516.683472 
	C528.423401,496.408264 549.958557,476.811249 572.373535,458.075928 
	C604.255005,431.428162 637.399719,406.675903 672.092773,383.874725 
	C690.691406,371.651245 709.897095,360.465454 729.234314,349.516083 
	C747.065308,339.419556 765.019836,329.453827 783.469238,320.571228 
	C793.853882,315.571442 804.292725,310.500244 814.972961,306.133331 
	C834.265137,298.245239 853.158142,289.376282 872.867737,282.503296 
	C889.077759,276.850708 905.210144,270.997498 921.496338,265.538818 
	C940.647278,259.120026 960.297607,254.566269 979.626099,248.894073 
	C992.149780,245.218857 1005.133423,242.285065 1018.135010,239.896561 
	C1030.147461,237.689774 1041.984619,234.335419 1054.145630,233.039688 
	C1070.901245,231.254425 1087.259521,227.178497 1104.104736,225.573853 
	C1117.850342,224.264465 1131.687866,222.631165 1145.411377,220.565460 
	C1149.006836,220.024261 1152.734985,219.793106 1156.351440,220.073486 
	C1166.065918,220.826660 1175.520752,218.702118 1185.097168,217.970947 
	C1188.344849,217.723007 1189.977417,216.291336 1189.946533,212.999084 
	C1189.924683,210.666580 1189.996948,208.333374 1189.997192,206.000473 
	C1190.001343,176.667709 1189.975098,147.334915 1190.014038,118.002197 
	C1190.027100,108.108116 1190.101074,108.024750 1199.923706,108.017197 
	C1243.256226,107.983879 1286.588623,108.002129 1329.921143,108.005348 
	C1331.587402,108.005470 1333.253540,108.054558 1334.919800,108.060524 
	C1338.113647,108.071953 1339.925659,109.497116 1339.926270,112.853455 
	C1339.926758,115.186172 1339.993164,117.518867 1339.993530,119.851585 
	C1339.999023,149.850998 1339.996826,179.850418 1340.000610,209.849838 
	C1340.000854,212.182831 1340.058228,214.515976 1340.042725,216.848755 
	C1340.021484,220.034088 1341.409302,221.621811 1344.742920,221.972672 
	C1361.509155,223.737183 1378.198975,226.211700 1394.910156,228.361832 
	C1407.956787,230.040466 1421.036255,232.406235 1433.984497,235.055557 
	C1454.384399,239.229538 1474.940308,242.928085 1494.992798,248.423813 
	C1511.553467,252.962540 1528.239380,257.200287 1544.596680,262.478424 
	C1561.627075,267.973663 1578.755737,273.285095 1595.422974,279.754730 
	C1617.601562,288.363586 1639.913208,296.662964 1661.563477,306.645264 
	C1682.922119,316.493134 1704.217773,326.479797 1724.896240,337.644165 
	C1750.005615,351.200714 1774.905762,365.109253 1798.704102,381.017059 
	C1821.845947,396.485992 1845.055542,411.849701 1867.122437,428.792755 
	C1885.231079,442.696777 1902.553833,457.619080 1920.082642,472.267853 
	C1944.171265,492.398590 1965.648926,515.081909 1987.926636,536.999634 
	C2004.270996,553.079712 2019.044067,570.571899 2033.673828,588.231384 
	C2043.615845,600.232239 2053.843506,612.049194 2063.185059,624.481628 
	C2083.105713,650.993042 2101.985352,678.226257 2119.613037,706.392761 
	C2130.171631,723.263977 2139.655518,740.698364 2149.692383,757.825562 
	C2162.281738,779.308838 2172.364502,802.145691 2183.189453,824.565491 
	C2192.552002,843.956543 2200.596924,863.945496 2208.098145,884.089111 
	C2216.755371,907.337646 2225.263916,930.685059 2231.891357,954.636353 
	C2235.502930,967.688049 2239.129883,980.743286 2242.645020,993.814453 
	C2246.338623,1007.550049 2249.688965,1021.346863 2252.572998,1035.232178 
	C2256.334473,1053.340332 2260.329590,1071.399902 2262.344727,1089.883545 
	C2263.338867,1099.000488 2266.275146,1107.983887 2266.705078,1117.275391 
	C2267.440430,1133.158813 2271.239990,1148.634644 2272.361084,1164.536621 
	C2273.555664,1181.477661 2272.362305,1198.542480 2274.391602,1215.260864 
	C2277.140381,1237.908081 2276.382080,1260.526001 2275.508789,1283.024780 
	C2274.930664,1297.927124 2274.922852,1312.903320 2273.758545,1327.766724 
	C2273.060059,1336.679565 2271.665039,1345.531738 2271.991211,1355.440796 
z"/>
<path fill="#000000" opacity="1.000000" stroke="none" 
	d="
M1189.033691,1257.989258 
	C1189.499023,1262.324585 1189.652466,1265.984619 1189.652588,1269.644653 
	C1189.662354,1585.672974 1189.660400,1901.701416 1189.642822,2218.638184 
	C1186.375488,2223.641602 1181.720337,2222.739258 1177.579346,2222.444580 
	C1135.040894,2219.418701 1092.770142,2214.344238 1050.926514,2205.890869 
	C1005.466309,2196.707275 960.627380,2185.216553 917.050354,2169.285645 
	C868.787659,2151.641357 822.264954,2130.005127 776.828430,2106.063477 
	C725.958130,2079.258545 678.715942,2046.914307 633.805176,2011.119629 
	C581.232300,1969.218140 534.484375,1921.460327 491.861786,1869.554443 
	C433.099884,1797.994019 385.825653,1719.522095 349.434235,1634.400635 
	C315.565643,1555.180298 292.876648,1472.942383 281.192474,1387.578247 
	C273.035034,1327.980347 271.054626,1268.017456 273.872223,1208.169678 
	C277.721863,1126.400635 291.565948,1046.056396 316.914307,967.940552 
	C345.769623,879.017334 385.051147,795.091370 437.318085,717.470093 
	C465.266327,675.964417 496.681030,637.239258 530.574463,600.321045 
	C585.684692,540.292603 647.613953,488.524200 715.923584,444.498260 
	C781.709534,402.098816 851.894531,368.381195 926.107422,343.249451 
	C927.696411,342.711365 929.311279,342.348206 931.773682,342.561768 
	C933.001526,342.979736 933.456482,343.241638 934.214355,344.229797 
	C932.304749,351.738953 925.775208,353.841888 920.669434,357.244080 
	C879.295288,384.813110 842.880371,417.831116 812.026306,456.773041 
	C767.584595,512.864319 735.518982,575.055237 718.180847,644.923218 
	C708.077820,685.635376 702.580383,726.706604 702.765686,768.452026 
	C703.004150,822.164856 713.422974,874.159363 730.301208,925.172913 
	C751.296326,988.629272 785.288513,1044.480835 829.626038,1093.606934 
	C867.965820,1136.087646 913.211609,1170.548096 963.735474,1198.229614 
	C1019.011047,1228.514648 1078.101562,1245.402100 1140.194214,1252.788696 
	C1152.683960,1254.274536 1165.296875,1256.120483 1178.023193,1255.464355 
	C1181.628540,1255.278564 1185.406982,1255.005249 1189.033691,1257.989258 
z"/>
<path fill="#FFFFFF" opacity="1.000000" stroke="none" 
	d="
M1340.656250,1262.584839 
	C1340.018433,941.416626 1340.009155,620.704041 1339.989014,299.062500 
	C1346.007324,294.180573 1352.494507,297.014374 1358.388184,297.789459 
	C1418.607788,305.708832 1477.898560,317.745605 1535.622070,337.233459 
	C1585.924316,354.215790 1634.920898,374.180145 1682.176147,398.299866 
	C1739.647827,427.634247 1792.956909,463.376007 1843.856812,503.026886 
	C1882.933472,533.467407 1918.521484,567.613403 1951.929077,603.813538 
	C2006.589844,663.042969 2053.218506,728.250671 2090.876221,799.780762 
	C2118.741699,852.710754 2142.612305,907.301392 2160.983398,964.172668 
	C2181.114502,1026.492432 2194.216797,1090.360474 2200.851807,1155.582886 
	C2205.102783,1197.371338 2208.026611,1239.219971 2206.463867,1281.187012 
	C2203.177734,1369.426270 2190.844727,1456.330322 2164.069092,1540.714600 
	C2140.610107,1614.645142 2109.664795,1685.397217 2069.865967,1752.050171 
	C2033.873535,1812.328491 1991.386230,1867.733398 1943.651733,1919.288818 
	C1869.489502,1999.387573 1782.894043,2062.872070 1686.973633,2114.170166 
	C1669.930298,2123.284912 1652.055054,2130.716797 1634.711548,2139.236084 
	C1631.437500,2140.844482 1627.994995,2142.198242 1624.349854,2142.835205 
	C1622.634277,2143.135254 1620.880493,2142.992432 1619.869019,2141.442383 
	C1618.849243,2139.879395 1619.457520,2138.234863 1620.510498,2136.841797 
	C1622.331787,2134.432129 1624.624756,2132.470703 1626.903320,2130.530518 
	C1684.394653,2081.577148 1729.202637,2022.957153 1759.973511,1953.981079 
	C1778.944458,1911.455444 1791.378418,1866.937744 1797.416626,1820.649414 
	C1801.264160,1791.154907 1802.756104,1761.522095 1801.207153,1731.927002 
	C1797.705933,1665.029175 1782.736206,1601.011230 1752.738647,1540.549316 
	C1731.063965,1496.862793 1703.533936,1457.396240 1671.588135,1420.956665 
	C1646.211182,1392.010254 1616.513550,1367.673584 1584.465698,1346.416382 
	C1524.454346,1306.611084 1458.949707,1280.703613 1387.659912,1269.503784 
	C1372.227783,1267.079468 1356.416626,1267.488403 1340.656250,1262.584839 
z"/>
<path fill="#FFFFFF" opacity="1.000000" stroke="none" 
	d="
M1189.266235,293.387573 
	C1189.957153,353.094391 1189.995239,412.412140 1189.996948,471.729858 
	C1190.003906,724.663879 1190.000366,977.597961 1189.997192,1230.531982 
	C1189.997070,1235.197144 1189.954102,1239.862427 1189.892456,1245.492920 
	C1186.648682,1248.693115 1183.443726,1247.277344 1180.265137,1246.415771 
	C1107.193970,1226.611206 1043.292480,1190.164551 986.030151,1140.984619 
	C933.824219,1096.147461 893.554749,1042.413696 864.556580,980.381470 
	C840.131714,928.132446 823.918274,873.413025 819.200012,815.495544 
	C814.921509,762.974121 817.033325,710.941650 829.351379,659.669983 
	C840.138123,614.772278 856.046936,571.624634 878.877563,531.354370 
	C898.967224,495.918701 920.944580,461.439026 949.587708,432.369385 
	C978.559509,402.966064 1009.925964,376.150818 1045.125000,353.857788 
	C1086.034180,327.948181 1129.511719,308.401367 1175.911621,295.036316 
	C1180.038696,293.847504 1184.121216,292.128387 1189.266235,293.387573 
z"/>
<path fill="#000000" opacity="1.000000" stroke="none" 
	d="
M1340.570557,2216.565430 
	C1339.851807,2213.457031 1339.681885,2210.798340 1339.681763,2208.139893 
	C1339.669922,1901.789673 1339.670166,1595.439453 1339.676758,1289.089233 
	C1339.676758,1286.760010 1339.771118,1284.430786 1339.984497,1281.194580 
	C1345.298706,1277.881836 1349.940063,1280.416992 1354.571411,1281.980103 
	C1416.727417,1302.955566 1471.729370,1336.611572 1521.094116,1379.141113 
	C1562.799194,1415.071655 1596.528687,1457.988525 1623.860474,1505.908569 
	C1655.834351,1561.967407 1675.514771,1622.209717 1683.815552,1685.936768 
	C1694.594238,1768.688965 1684.493286,1849.291260 1655.024414,1927.406982 
	C1633.725708,1983.865112 1602.560669,2034.204712 1562.002197,2078.918701 
	C1507.055908,2139.495117 1441.647705,2184.632080 1365.257812,2213.786865 
	C1357.619385,2216.701904 1349.849609,2220.716797 1340.570557,2216.565430 
z"/>
<path fill="#A2A2A2" opacity="1.000000" stroke="none" 
	d="
M1189.890381,292.860626 
	C1150.105225,303.928345 1111.807251,318.378143 1076.017334,338.436249 
	C1047.322510,354.517822 1019.813293,372.685944 994.503662,394.011871 
	C980.741333,405.607941 968.140259,418.400574 955.043457,430.652740 
	C939.012817,445.649445 926.256958,463.589325 913.566040,481.531952 
	C887.880859,517.846008 866.128784,556.232910 851.155090,598.171143 
	C842.675659,621.920166 833.892700,645.637024 829.483398,670.652039 
	C826.258972,688.944885 823.276367,707.215149 821.550476,725.765625 
	C819.353638,749.377563 819.125061,772.968079 820.358948,796.524902 
	C822.289673,833.384766 827.658569,869.716797 839.091370,905.060913 
	C845.641479,925.310547 852.045166,945.568542 860.413330,965.157043 
	C875.916809,1001.448425 896.237732,1034.850342 919.650452,1066.588989 
	C950.009460,1107.744141 987.409424,1141.355835 1028.553589,1171.163086 
	C1077.048462,1206.295776 1130.463135,1230.954712 1189.098267,1246.269531 
	C1189.789673,1249.944336 1189.725464,1253.430542 1189.539307,1257.790527 
	C1165.226318,1257.402466 1141.054443,1256.157227 1117.062500,1252.354248 
	C1075.836182,1245.819458 1035.765625,1235.192017 997.723999,1217.955322 
	C948.651794,1195.720581 903.710510,1166.889282 863.498840,1130.896362 
	C830.613831,1101.461304 803.012695,1067.601807 778.575623,1030.906982 
	C747.009827,983.507568 727.624329,931.214722 713.692688,876.440613 
	C706.789612,849.300232 703.494751,821.830322 701.457520,793.967957 
	C698.357178,751.565491 701.303406,709.608826 709.984802,668.234070 
	C719.008972,625.226074 732.684387,583.541870 752.235229,544.003357 
	C764.955017,518.279541 781.269592,494.802429 797.924866,471.535065 
	C834.648804,420.231842 880.835022,379.160126 933.905762,344.669434 
	C923.987061,345.171783 915.024170,349.790405 905.732849,353.143127 
	C873.810608,364.661896 842.712463,378.233551 812.255188,393.184570 
	C755.055542,421.263123 701.208679,454.735931 650.747314,493.721619 
	C612.212891,523.492676 576.186401,556.014404 542.490173,591.086487 
	C498.803284,636.557068 460.036530,685.996887 426.139526,739.163635 
	C394.593903,788.642334 368.384064,840.894409 346.267700,895.242554 
	C329.838043,935.616272 315.435272,976.637024 304.815643,1018.949707 
	C295.187469,1057.312012 288.068329,1096.166016 282.693726,1135.311035 
	C280.168854,1153.700562 279.499969,1172.337524 277.650299,1190.828491 
	C274.460175,1222.719849 275.741943,1254.692749 275.807159,1286.628662 
	C275.860046,1312.529907 279.031433,1338.267578 281.319092,1364.055420 
	C284.496368,1399.871704 291.370514,1435.058472 298.616272,1470.145142 
	C303.785828,1495.178101 310.607910,1519.906738 318.433044,1544.277100 
	C327.881653,1573.703613 338.872070,1602.619019 351.007172,1631.008301 
	C371.015625,1677.816406 393.800995,1723.245850 420.986053,1766.426270 
	C452.974091,1817.235718 489.426910,1864.515869 529.523071,1909.184082 
	C579.386414,1964.732910 635.811218,2012.567017 697.143494,2054.802490 
	C735.860046,2081.464111 776.747925,2104.351074 819.181519,2124.573975 
	C855.516602,2141.890625 892.265137,2158.245850 930.387634,2171.167725 
	C965.639465,2183.116699 1001.523804,2192.852051 1038.039062,2200.448975 
	C1066.994507,2206.473633 1096.156616,2210.929199 1125.366333,2215.257568 
	C1132.911011,2216.375732 1140.556885,2216.666992 1148.145874,2217.476074 
	C1161.329590,2218.881836 1174.631348,2219.182861 1188.754883,2219.746826 
	C1189.690186,2227.872559 1189.880737,2236.199707 1189.780273,2244.523682 
	C1189.690308,2251.989502 1189.500122,2252.016846 1181.671387,2252.172363 
	C1169.682617,2252.410645 1157.818970,2250.541504 1145.881958,2250.050781 
	C1125.953491,2249.231689 1106.392334,2245.449219 1086.671631,2243.008301 
	C1072.222900,2241.220215 1057.728394,2239.033203 1043.610229,2235.571777 
	C1031.051758,2232.492920 1018.215088,2230.823242 1005.783997,2227.063721 
	C993.091064,2223.225342 979.918640,2220.983887 967.194763,2217.233398 
	C944.005249,2210.398682 920.958679,2203.155273 898.221191,2194.798828 
	C880.765991,2188.384033 863.451172,2181.734131 846.334961,2174.489502 
	C813.908142,2160.764648 782.497070,2145.066162 751.597717,2128.155762 
	C731.730286,2117.282715 712.340637,2105.647705 693.471130,2093.291260 
	C663.479187,2073.651123 634.359375,2052.688721 606.614319,2029.884277 
	C574.500916,2003.489258 543.768555,1975.564453 515.166321,1945.440552 
	C489.547852,1918.458984 465.372650,1890.195068 442.833649,1860.492065 
	C421.510437,1832.391113 401.379669,1803.511841 383.122955,1773.390991 
	C362.106842,1738.717285 343.194672,1702.893188 326.649536,1665.806030 
	C316.635376,1643.358765 306.731171,1620.835083 298.621887,1597.694214 
	C290.079529,1573.317627 281.612549,1548.873291 275.190948,1523.733154 
	C271.174561,1508.009155 266.949402,1492.320557 263.287323,1476.503906 
	C258.354828,1455.200195 253.470367,1433.830811 250.683380,1412.153809 
	C248.192505,1392.779785 245.364075,1373.443848 243.426208,1353.965454 
	C241.258682,1332.178345 239.560089,1310.329346 238.658615,1288.542847 
	C237.644012,1264.022949 236.354874,1239.311401 239.694016,1214.763428 
	C240.050034,1212.146118 239.915329,1209.447510 239.852081,1206.790283 
	C239.479324,1191.129639 241.614761,1175.677979 243.467270,1160.186035 
	C244.450592,1151.963135 244.547150,1143.677490 245.667480,1135.412231 
	C249.806396,1104.876587 254.154800,1074.446777 261.070831,1044.334106 
	C264.629181,1028.840942 267.885010,1013.223511 271.914368,997.857117 
	C278.133636,974.139282 285.652405,950.794128 293.468262,927.513245 
	C303.632172,897.238159 315.870728,867.854309 328.927124,838.827820 
	C342.812164,807.959167 358.398712,777.904724 375.972473,748.884888 
	C384.750763,734.389160 393.500366,719.899841 402.813965,705.739441 
	C416.685913,684.648621 431.365417,664.149719 446.819946,644.192932 
	C464.733154,621.061218 483.791962,598.922058 503.441681,577.246826 
	C528.912659,549.150269 556.431885,523.198181 584.995911,498.349884 
	C616.590271,470.865417 649.984863,445.699280 684.857117,422.485565 
	C714.456116,402.782074 745.096069,384.940308 776.583862,368.390656 
	C812.500366,349.513367 849.432800,332.982086 887.358337,318.782928 
	C908.732727,310.780457 930.462280,303.632660 952.446594,297.233795 
	C975.075745,290.647217 997.817871,284.671753 1020.788635,279.494751 
	C1050.213989,272.863068 1079.914062,267.937103 1109.817383,263.875793 
	C1131.215942,260.969543 1152.671875,259.535614 1174.155396,258.009583 
	C1175.815430,257.891663 1177.483154,257.855225 1179.147949,257.837250 
	C1189.740234,257.722809 1189.760864,257.727905 1189.813477,267.951111 
	C1189.854736,275.948792 1189.836548,283.946747 1189.890381,292.860626 
z"/>
<path fill="#C0C0C0" opacity="1.000000" stroke="none" 
	d="
M1339.877686,2217.041504 
	C1349.071045,2216.430420 1357.575806,2214.042236 1366.085327,2210.884033 
	C1398.646851,2198.797852 1429.436157,2183.185303 1458.208252,2163.847900 
	C1491.938354,2141.178467 1524.114624,2116.531006 1551.977417,2086.626221 
	C1591.769775,2043.917603 1624.224243,1996.314331 1646.363770,1942.263062 
	C1665.184937,1896.313354 1678.357422,1848.733765 1682.493164,1798.911743 
	C1683.976318,1781.045288 1686.004761,1763.170288 1685.514404,1745.286377 
	C1684.199341,1697.336792 1677.702393,1650.170532 1663.361816,1604.151611 
	C1647.181519,1552.228760 1622.866333,1504.664062 1591.386353,1460.337891 
	C1568.861694,1428.621216 1542.632446,1400.545288 1512.991821,1375.779175 
	C1464.907471,1335.602539 1411.800171,1303.790527 1352.014648,1283.905151 
	C1348.552734,1282.753662 1345.053223,1281.715210 1340.859497,1280.455811 
	C1340.089844,1274.832764 1340.031982,1269.378052 1340.000977,1263.026367 
	C1363.612915,1262.982422 1386.882324,1266.377319 1409.992798,1270.956177 
	C1444.670166,1277.826782 1478.184570,1288.518188 1510.579102,1302.579102 
	C1530.753174,1311.335571 1549.762085,1322.368042 1568.673706,1333.593140 
	C1606.424805,1356.000610 1640.318604,1383.274780 1669.966797,1415.469116 
	C1695.210327,1442.880615 1717.820068,1472.510010 1736.469360,1504.934570 
	C1748.246582,1525.411377 1759.200806,1546.310303 1768.178345,1568.204468 
	C1779.423706,1595.629272 1788.270142,1623.782959 1794.026123,1652.868652 
	C1798.083618,1673.372681 1800.496826,1694.067261 1802.439453,1714.906494 
	C1804.580933,1737.878296 1805.004517,1760.858521 1803.593872,1783.691772 
	C1800.384155,1835.640747 1790.040527,1886.201660 1770.650635,1934.783936 
	C1753.265991,1978.341553 1730.708374,2018.882446 1701.981323,2055.932617 
	C1680.924927,2083.089844 1657.333740,2107.878662 1631.125366,2130.149170 
	C1627.594727,2133.149414 1624.267334,2136.389893 1620.877075,2139.552490 
	C1620.702148,2139.715820 1620.822754,2140.196533 1620.762451,2141.377197 
	C1626.698975,2140.174561 1631.960449,2137.830322 1637.180542,2135.344482 
	C1666.271118,2121.491211 1695.419434,2107.750000 1723.203491,2091.344238 
	C1751.576416,2074.590820 1779.116943,2056.575928 1805.824585,2037.265259 
	C1826.302490,2022.459106 1845.742676,2006.330688 1865.687866,1990.846924 
	C1871.193115,1986.573120 1876.514648,1982.005127 1881.528564,1977.166138 
	C1898.053101,1961.217407 1915.807983,1946.516968 1931.227417,1929.460938 
	C1956.404541,1901.611816 1981.368164,1873.592773 2004.284668,1843.771729 
	C2028.444580,1812.332275 2050.565918,1779.545898 2070.826416,1745.538086 
	C2089.881348,1713.553955 2105.823486,1679.937134 2121.282471,1646.059937 
	C2133.173584,1620.001831 2143.066895,1593.164185 2153.097412,1566.440186 
	C2162.647217,1540.996582 2170.013428,1514.669434 2175.996094,1488.049805 
	C2182.322998,1459.899780 2188.301758,1431.722412 2192.483643,1403.120483 
	C2195.893311,1379.800903 2198.024902,1356.417603 2200.408203,1333.006104 
	C2203.750977,1300.163086 2204.057861,1267.314453 2203.828125,1234.409058 
	C2203.707520,1217.155762 2202.091064,1199.985596 2200.357910,1182.817261 
	C2199.459473,1173.919800 2198.967041,1164.952881 2198.356201,1156.033081 
	C2197.150879,1138.435181 2194.055420,1121.140381 2191.491943,1103.768799 
	C2186.840820,1072.250610 2179.759521,1041.190308 2171.932861,1010.336670 
	C2164.412109,980.688354 2154.399658,951.805969 2143.749756,923.122864 
	C2132.043945,891.595276 2118.501221,860.891296 2103.882812,830.645142 
	C2098.395508,819.291687 2092.269043,808.248596 2086.507080,797.026306 
	C2069.612305,764.120483 2049.550537,733.152161 2028.375244,702.912292 
	C2011.409302,678.683838 1993.136108,655.445923 1974.107056,632.765442 
	C1948.582520,602.342957 1920.297485,574.621033 1891.760254,547.155945 
	C1875.244629,531.260925 1857.325928,516.891724 1839.252197,502.766235 
	C1814.873901,483.713745 1789.810181,465.624084 1763.885132,448.729156 
	C1727.865234,425.255524 1690.562012,404.003357 1651.528076,386.018494 
	C1614.695068,369.047791 1577.021362,354.133423 1538.605713,340.931122 
	C1501.131714,328.052399 1462.901489,318.228485 1424.154053,310.737000 
	C1399.819702,306.032166 1375.391602,300.813568 1350.425903,299.792053 
	C1347.484497,299.671661 1344.577148,298.717865 1340.816162,298.142029 
	C1339.978149,286.178528 1339.978149,274.223419 1339.978149,261.990875 
	C1351.461182,260.816681 1362.079102,263.518921 1372.794556,264.657013 
	C1392.223022,266.720490 1411.455566,270.262207 1430.535156,274.271362 
	C1443.116577,276.915100 1455.813599,279.122864 1468.280396,282.627960 
	C1478.424438,285.480042 1488.892944,287.484467 1499.152100,290.160400 
	C1532.575317,298.878265 1564.986572,310.604126 1597.385010,322.474640 
	C1624.899902,332.555817 1651.346191,345.024994 1677.891357,357.237976 
	C1694.147339,364.717102 1709.735718,373.723877 1725.296753,382.617065 
	C1742.857666,392.653259 1760.236694,403.036743 1777.362305,413.798462 
	C1804.361816,430.764740 1830.345825,449.270966 1855.315552,469.062561 
	C1870.907471,481.420929 1886.066650,494.383423 1901.026489,507.568329 
	C1916.468750,521.178345 1931.371948,535.329468 1945.847290,549.892212 
	C1976.275635,580.504578 2004.660034,612.898865 2030.994507,647.192566 
	C2060.005615,684.971497 2086.159668,724.600342 2109.596191,765.927246 
	C2127.934326,798.263977 2144.460205,831.610962 2158.493164,866.182251 
	C2167.727539,888.931396 2176.462402,911.827942 2184.519287,934.997742 
	C2194.547119,963.837524 2202.580811,993.247742 2209.945068,1022.876282 
	C2216.342285,1048.614746 2220.886719,1074.713745 2225.482666,1100.772827 
	C2227.942871,1114.724243 2228.615479,1129.122437 2230.510010,1143.177490 
	C2232.812744,1160.260864 2233.400391,1177.445923 2235.526611,1194.512207 
	C2236.632080,1203.382935 2236.053223,1212.476196 2236.056152,1221.468994 
	C2236.065674,1250.460449 2237.134033,1279.515259 2235.528564,1308.419800 
	C2234.543213,1326.156250 2235.331299,1344.197632 2230.678955,1361.771606 
	C2228.583740,1369.686157 2229.319824,1378.220337 2228.382324,1386.480835 
	C2225.427246,1412.527954 2220.275879,1438.149902 2215.123535,1463.785645 
	C2209.437012,1492.078369 2202.242676,1520.034668 2193.623047,1547.545166 
	C2182.218994,1583.942139 2169.157471,1619.760620 2153.869873,1654.770752 
	C2144.690186,1675.792847 2135.181396,1696.648315 2124.365234,1716.838989 
	C2096.869141,1768.165527 2066.019531,1817.296997 2030.223389,1863.408691 
	C2008.597290,1891.266846 1986.120728,1918.295288 1961.858887,1943.792480 
	C1938.109619,1968.750854 1912.920654,1992.224609 1886.763916,2014.740234 
	C1856.749756,2040.576538 1825.200806,2064.271973 1792.435913,2086.372803 
	C1760.746460,2107.747803 1727.835693,2127.239746 1693.815308,2144.610840 
	C1663.377441,2160.152344 1632.255127,2174.331299 1600.186523,2186.421143 
	C1572.549194,2196.840332 1544.844971,2207.148438 1516.453369,2215.097656 
	C1501.541748,2219.272949 1486.470093,2223.351562 1471.216309,2226.649170 
	C1455.426270,2230.062988 1439.651978,2233.816162 1423.794556,2237.024170 
	C1404.661133,2240.895264 1385.353394,2243.731934 1365.966919,2246.168701 
	C1357.722046,2247.205322 1349.502197,2248.017090 1339.812744,2248.606201 
	C1339.812744,2238.376953 1339.812744,2228.172363 1339.877686,2217.041504 
z"/>
<path fill="#A2A2A2" opacity="1.000000" stroke="none" 
	d="
M1219.827148,1428.000000 
	C1219.827026,1002.351074 1219.820068,577.702148 1219.853149,153.053238 
	C1219.854492,136.057251 1217.854126,138.288071 1234.752686,138.204269 
	C1257.084595,138.093521 1279.417603,138.122772 1301.749634,138.208420 
	C1309.575195,138.238434 1309.592407,138.395432 1309.810547,145.881363 
	C1309.878540,148.212631 1309.822876,150.547531 1309.822876,152.880768 
	C1309.822998,886.183472 1309.827759,1619.486084 1309.793823,2352.788818 
	C1309.792969,2370.435303 1311.995972,2368.044922 1294.405151,2368.142822 
	C1272.406738,2368.264893 1250.406982,2368.220459 1228.408203,2368.145996 
	C1220.047119,2368.117676 1220.030273,2367.989502 1219.839355,2359.959961 
	C1219.776123,2357.294922 1219.827515,2354.627197 1219.827515,2351.960693 
	C1219.827271,2044.307129 1219.827271,1736.653564 1219.827148,1428.000000 
z"/>
<path fill="#3D3D3D" opacity="1.000000" stroke="none" 
	d="
M934.003296,343.988007 
	C934.289856,342.491730 935.301392,342.137115 936.599548,342.343536 
	C936.814087,342.377655 936.969360,342.784729 937.151978,343.019409 
	C936.516785,343.449127 935.881531,343.878815 934.659363,344.165527 
	C934.072449,344.022522 934.005310,344.019012 934.003296,343.988007 
z"/>
<path fill="#FFFFFF" opacity="1.000000" stroke="none" 
	d="
M1616.909424,2142.830811 
	C1617.102539,2142.708496 1617.190186,2143.192139 1617.190186,2143.192139 
	C1617.190186,2143.192139 1616.716187,2142.953125 1616.909424,2142.830811 
z"/>
</svg>