<?xml version="1.0" encoding="UTF-8"?>
<!DOCTYPE svg PUBLIC "-//W3C//DTD SVG 1.1//EN" "http://www.w3.org/Graphics/SVG/1.1/DTD/svg11.dtd">
<svg xmlns="http://www.w3.org/2000/svg" version="1.1" width="2500px" height="2500px" style="shape-rendering:geometricPrecision; text-rendering:geometricPrecision; image-rendering:optimizeQuality; fill-rule:evenodd; clip-rule:evenodd" xmlns:xlink="http://www.w3.org/1999/xlink">
<g><path style="opacity:0.99" fill="#fefffe" d="M 1200.5,22.5 C 1474.29,14.0626 1723.95,86.5626 1949.5,240C 1979.71,261.939 2009.37,284.606 2038.5,308C 2051.52,320.687 2065.19,332.687 2079.5,344C 2282.08,531.968 2408.58,762.802 2459,1036.5C 2509.63,1347.02 2452.96,1636.02 2289,1903.5C 2159.15,2106.35 1985.31,2259.19 1767.5,2362C 1517.95,2474.28 1258.95,2502.95 990.5,2448C 737.735,2390.91 523.235,2268.41 347,2080.5C 188.32,1905.13 86.9863,1700.47 43,1466.5C -5.22647,1181.53 38.7735,911.864 175,657.5C 309.737,417.762 502.237,240.929 752.5,127C 895.533,64.7402 1044.87,29.9069 1200.5,22.5 Z"/></g>
<g><path style="opacity:1" fill="#f1f1f1" d="M 1201.5,104.5 C 1251.5,104.5 1301.5,104.5 1351.5,104.5C 1351.5,142.167 1351.5,179.833 1351.5,217.5C 1616.31,246.844 1838.81,358.511 2019,552.5C 2169.46,720.807 2257.46,918.141 2283,1144.5C 2301.33,1339.69 2268.99,1525.36 2186,1701.5C 2082.03,1911.97 1925.53,2071.31 1716.5,2179.5C 1620.88,2226.87 1520.38,2259.2 1415,2276.5C 1393.7,2278.99 1372.53,2281.66 1351.5,2284.5C 1351.5,2321.17 1351.5,2357.83 1351.5,2394.5C 1301.5,2394.5 1251.5,2394.5 1201.5,2394.5C 1201.5,2359.17 1201.5,2323.83 1201.5,2288.5C 941.139,2273.06 717.139,2176.89 529.5,2000C 342.963,1816.81 237.797,1593.64 214,1330.5C 197.052,1054.16 274.052,808.495 445,593.5C 568.085,445.236 720.752,337.902 903,271.5C 999.547,237.821 1099.05,218.488 1201.5,213.5C 1201.5,177.167 1201.5,140.833 1201.5,104.5 Z"/></g>
<g><path style="opacity:1" fill="#a1a2a1" d="M 1231.5,134.5 C 1261.5,134.5 1291.5,134.5 1321.5,134.5C 1321.5,877.833 1321.5,1621.17 1321.5,2364.5C 1291.5,2364.5 1261.5,2364.5 1231.5,2364.5C 1231.5,1621.17 1231.5,877.833 1231.5,134.5 Z"/></g>
<g><path style="opacity:1" fill="#a2a2a2" d="M 1201.5,290.5 C 1159.87,300.981 1120.21,316.481 1082.5,337C 1056.63,353.1 1031.63,370.434 1007.5,389C 994.867,399.965 982.533,411.298 970.5,423C 893.201,505.126 847.701,602.626 834,715.5C 822.612,859.327 863.612,985.66 957,1094.5C 1006.46,1146.97 1063.96,1188.14 1129.5,1218C 1152.94,1227.87 1176.94,1236.04 1201.5,1242.5C 1201.5,1246.5 1201.5,1250.5 1201.5,1254.5C 1077.15,1252.24 968.816,1210.07 876.5,1128C 832.103,1087.28 795.603,1040.44 767,987.5C 696.152,840.618 694.485,692.951 762,544.5C 792.478,484.433 832.978,431.933 883.5,387C 904.44,369.061 926.773,353.061 950.5,339C 951.696,338.346 951.696,337.846 950.5,337.5C 727.843,413.355 554.009,550.688 429,749.5C 296.37,973.532 257.037,1213.2 311,1468.5C 367.342,1698.49 489.175,1884.99 676.5,2028C 793.521,2113.48 923.521,2170.82 1066.5,2200C 1111.11,2208.7 1156.11,2214.2 1201.5,2216.5C 1201.5,2227.17 1201.5,2237.83 1201.5,2248.5C 1005.13,2238.23 827.795,2177.06 669.5,2065C 490.594,1934.76 366.428,1764.6 297,1554.5C 288.105,1526.59 280.605,1498.26 274.5,1469.5C 274.818,1468.35 275.484,1467.52 276.5,1467C 275.552,1466.52 274.552,1466.35 273.5,1466.5C 242.833,1322.83 242.833,1179.17 273.5,1035.5C 330.742,789.178 461.742,590.344 666.5,439C 826.35,325.432 1004.68,263.599 1201.5,253.5C 1201.5,265.833 1201.5,278.167 1201.5,290.5 Z"/></g>
<g><path style="opacity:1" fill="#bfbfbf" d="M 1351.5,2212.5 C 1357.55,2212.07 1363.55,2211.23 1369.5,2210C 1484.56,2166.76 1573.06,2092.26 1635,1986.5C 1703.13,1858.27 1715.13,1724.93 1671,1586.5C 1619.88,1445.38 1525.05,1345.88 1386.5,1288C 1375,1283.58 1363.33,1279.75 1351.5,1276.5C 1351.5,1270.17 1351.5,1263.83 1351.5,1257.5C 1484.91,1267.09 1597.07,1320.42 1688,1417.5C 1798.43,1544.57 1837.43,1691.23 1805,1857.5C 1777.83,1973.07 1718,2067.57 1625.5,2141C 1763.98,2082.99 1882.48,1997.15 1981,1883.5C 2091.04,1754.35 2163.37,1606.01 2198,1438.5C 2243.6,1187.21 2199.6,953.21 2066,736.5C 1953.2,562.349 1800.7,436.182 1608.5,358C 1525.92,324.439 1440.26,303.273 1351.5,294.5C 1351.5,281.833 1351.5,269.167 1351.5,256.5C 1595.84,284.09 1803.34,385.757 1974,561.5C 2091.89,687.413 2172.72,832.413 2216.5,996.5C 2249.98,1127.16 2257.48,1259.82 2239,1394.5C 2203.11,1627.16 2099.28,1824.32 1927.5,1986C 1762.62,2134.82 1570.62,2221.32 1351.5,2245.5C 1351.5,2234.5 1351.5,2223.5 1351.5,2212.5 Z"/></g>
<g><path style="opacity:1" fill="#fefffe" d="M 1201.5,290.5 C 1201.5,607.833 1201.5,925.167 1201.5,1242.5C 1176.94,1236.04 1152.94,1227.87 1129.5,1218C 1063.96,1188.14 1006.46,1146.97 957,1094.5C 863.612,985.66 822.612,859.327 834,715.5C 847.701,602.626 893.201,505.126 970.5,423C 982.533,411.298 994.867,399.965 1007.5,389C 1031.63,370.434 1056.63,353.1 1082.5,337C 1120.21,316.481 1159.87,300.981 1201.5,290.5 Z"/></g>
<g><path style="opacity:1" fill="#fefffe" d="M 1351.5,294.5 C 1440.26,303.273 1525.92,324.439 1608.5,358C 1800.7,436.182 1953.2,562.349 2066,736.5C 2199.6,953.21 2243.6,1187.21 2198,1438.5C 2163.37,1606.01 2091.04,1754.35 1981,1883.5C 1882.48,1997.15 1763.98,2082.99 1625.5,2141C 1718,2067.57 1777.83,1973.07 1805,1857.5C 1837.43,1691.23 1798.43,1544.57 1688,1417.5C 1597.07,1320.42 1484.91,1267.09 1351.5,1257.5C 1351.5,936.5 1351.5,615.5 1351.5,294.5 Z"/></g>
<g><path style="opacity:1" fill="#000000" d="M 1201.5,1254.5 C 1201.5,1575.17 1201.5,1895.83 1201.5,2216.5C 1156.11,2214.2 1111.11,2208.7 1066.5,2200C 923.521,2170.82 793.521,2113.48 676.5,2028C 489.175,1884.99 367.342,1698.49 311,1468.5C 257.037,1213.2 296.37,973.532 429,749.5C 554.009,550.688 727.843,413.355 950.5,337.5C 951.696,337.846 951.696,338.346 950.5,339C 926.773,353.061 904.44,369.061 883.5,387C 832.978,431.933 792.478,484.433 762,544.5C 694.485,692.951 696.152,840.618 767,987.5C 795.603,1040.44 832.103,1087.28 876.5,1128C 968.816,1210.07 1077.15,1252.24 1201.5,1254.5 Z"/></g>
<g><path style="opacity:1" fill="#000000" d="M 1351.5,1276.5 C 1363.33,1279.75 1375,1283.58 1386.5,1288C 1525.05,1345.88 1619.88,1445.38 1671,1586.5C 1715.13,1724.93 1703.13,1858.27 1635,1986.5C 1573.06,2092.26 1484.56,2166.76 1369.5,2210C 1363.55,2211.23 1357.55,2212.07 1351.5,2212.5C 1351.5,1900.5 1351.5,1588.5 1351.5,1276.5 Z"/></g>
</svg>
