<?xml version="1.0" encoding="utf-8"?>
<svg viewBox="-447.468 -750.0001 2000 2000" xmlns="http://www.w3.org/2000/svg">
  <path d="M 552.532 1250 C 1106.702 1250 1552.532 804.17 1552.532 250 C 1552.532 -304.17 1106.702 -750 552.532 -750 C -1.638 -750 -447.468 -304.17 -447.468 250 C -447.468 804.17 -1.638 1250 552.532 1250 Z" fill="#2775ca"/>
  <path d="M 340.032 845.83 C 15.032 729.17 -151.638 366.67 -30.798 45.83 C 31.701999999999998 -129.17 169.202 -262.5 340.032 -325 C 356.702 -333.33 365.032 -345.83 365.032 -366.67 L 365.032 -425 C 365.032 -441.67 356.702 -454.17 340.032 -458.33 C 335.862 -458.33 327.532 -458.33 323.362 -454.17 C -72.468 -329.17 -289.138 91.67 -164.138 487.5 C -89.138 720.83 90.032 900 323.362 975 C 340.032 983.33 356.702 975 360.862 958.33 C 365.032 954.17 365.032 950 365.032 941.67 L 365.032 883.33 C 365.032 870.83 352.532 854.17 340.032 845.83 Z" fill="#fff"/>
  <path d="M 781.702 -454.17 C 765.032 -462.5 748.362 -454.17 744.202 -437.5 C 740.032 -433.33 740.032 -429.17 740.032 -420.83 L 740.032 -362.5 C 740.032 -345.83 752.532 -329.17 765.032 -320.83 C 1090.032 -204.17 1256.702 158.33 1135.862 479.17 C 1073.362 654.17 935.862 787.5 765.032 850 C 748.362 858.33 740.032 870.83 740.032 891.67 L 740.032 950 C 740.032 966.67 748.362 979.17 765.032 983.33 C 769.202 983.33 777.532 983.33 781.702 979.17 C 1177.532 854.17 1394.202 433.33 1269.202 37.5 C 1194.202 -200 1010.862 -379.17 781.702 -454.17 Z" fill="#fff"/>
  <path class="cls-1" d="M 1226.769 -27.068 C 1226.769 -27.286 1226.715 -27.449 1226.715 -27.585 C 1226.661 -27.721 1226.661 -27.748 1226.661 -27.748" style="fill: rgb(0, 82, 255); stroke-width: 0px;"/>
  <g transform="matrix(2.7059929370880127, 0, 0, 2.720292091369629, -456.6758558951565, -960.8038006068401)">
    <path class="cls-1" d="m335.96,364.2h-39.39v65.76h39.39v188.31c12.12,1.83,24.52,2.78,37.14,2.78s25.03-.95,37.16-2.78v-254.07h-74.3Z" style="stroke-width: 0px; fill: rgb(255, 255, 255);"/>
    <circle class="cls-1" cx="373.1" cy="305.63" r="37.16" transform="translate(-52.04 533.37) rotate(-67.5)" style="stroke-width: 0px; fill: rgb(255, 255, 255);"/>
  </g>
</svg>