<?xml version="1.0" encoding="UTF-8"?>
<svg version="1.1" xmlns="http://www.w3.org/2000/svg" width="500" height="500">
<path d="M0 0 C165 0 330 0 500 0 C500 165 500 330 500 500 C335 500 170 500 0 500 C0 335 0 170 0 0 Z " fill="#FEFEFE" transform="translate(0,0)"/>
<path d="M0 0 C1.03362671 0.30200317 1.03362671 0.30200317 2.08813477 0.61010742 C4 1.21875 4 1.21875 7 2.5 C7.495 3.985 7.495 3.985 8 5.5 C8.72574219 5.61472656 9.45148438 5.72945312 10.19921875 5.84765625 C23.1825383 8.87166513 37.57493023 20.23271589 47.73046875 28.63671875 C61.382949 39.84538154 77.22344865 49.22727357 95.32421875 48.8046875 C98.69056977 48.42136578 101.14891189 47.30068723 104 45.5 C104.66 45.5 105.32 45.5 106 45.5 C108.12387604 41.19348455 108.27052898 37.26893242 108.1875 32.5625 C108.18685547 31.87220703 108.18621094 31.18191406 108.18554688 30.47070312 C108.15068673 26.38432003 107.78419348 22.50879709 107 18.5 C109.56492752 19.78246376 109.63934798 20.67833441 110.62109375 23.32421875 C111.06485352 24.49694336 111.06485352 24.49694336 111.51757812 25.69335938 C111.82115234 26.51642578 112.12472656 27.33949219 112.4375 28.1875 C114.39844185 33.44619781 116.43676961 38.4973316 119 43.5 C120.17743092 46.45142685 121.11009416 49.4503227 122 52.5 C122.31324219 53.55574219 122.31324219 53.55574219 122.6328125 54.6328125 C124.86483461 63.65521174 126.35787494 75.83823343 122.71484375 84.5859375 C118.32419997 90.60682031 112.24805258 94.05038948 105 95.5 C80.28555271 97.64755169 59.13579283 82.28038323 40 68.5 C34.15522263 64.31462314 28.29886823 60.38986881 22.03125 56.859375 C20 55.5 20 55.5 18 52.5 C15.69855891 51.42863949 13.3659787 50.42010283 11 49.5 C11 48.84 11 48.18 11 47.5 C10.41992188 47.31824219 9.83984375 47.13648438 9.2421875 46.94921875 C4.60852707 45.4581894 0.30237645 43.81666424 -4 41.5 C-4 40.84 -4 40.18 -4 39.5 C-4.680625 39.396875 -5.36125 39.29375 -6.0625 39.1875 C-8.89420995 38.52475937 -11.33745709 37.50115782 -13.98828125 36.328125 C-24.91620531 31.82963976 -35.6843534 31.30647655 -47.375 31.25 C-48.43460938 31.229375 -49.49421875 31.20875 -50.5859375 31.1875 C-59.48404312 31.14388184 -67.81522123 31.91369959 -75 37.5 C-76.03125 37.87125 -77.0625 38.2425 -78.125 38.625 C-85.06432574 41.48765921 -91.28377961 47.38005923 -94.625 54.0625 C-95.305625 55.7640625 -95.305625 55.7640625 -96 57.5 C-96.66 57.5 -97.32 57.5 -98 57.5 C-98.33 58.49 -98.66 59.48 -99 60.5 C-99.08184423 57.52026385 -99.14089764 54.54283168 -99.1875 51.5625 C-99.21263672 50.73169922 -99.23777344 49.90089844 -99.26367188 49.04492188 C-99.42098179 35.56870548 -92.94416087 25.30875473 -83.75 15.8125 C-59.20140766 -7.72862617 -31.21613185 -9.31809093 0 0 Z " fill="#0B83BD" transform="translate(238,173.5)"/>
<path d="M0 0 C0.76634766 0.00386719 1.53269531 0.00773437 2.32226562 0.01171875 C3.06154297 0.00785156 3.80082031 0.00398438 4.5625 0 C11.84822999 0.01274843 18.31917771 0.82318945 25.25976562 3.13671875 C26.98608478 3.44479178 28.7157124 3.73457213 30.44726562 4.01171875 C38.78600956 5.45996736 46.37356586 8.64780651 54.03710938 12.1484375 C56.2968228 13.15319584 58.57870919 14.05642919 60.88476562 14.94921875 C65.27321977 16.67178954 69.51079978 18.66276982 73.75976562 20.69921875 C78.90106022 23.16248622 83.95645385 25.16775265 89.50195312 26.53125 C91.25976562 27.13671875 91.25976562 27.13671875 92.25976562 29.13671875 C95.48875923 30.4655227 98.88157078 31.27015848 102.25976562 32.13671875 C103.06542969 32.34683594 103.87109375 32.55695313 104.70117188 32.7734375 C110.7518142 34.10855576 116.71320859 34.34182817 122.88476562 34.38671875 C123.67230225 34.39598389 124.45983887 34.40524902 125.27124023 34.41479492 C134.69949645 34.51827966 134.69949645 34.51827966 142.86376953 30.66503906 C143.32444824 30.16069336 143.78512695 29.65634766 144.25976562 29.13671875 C145.46632813 28.33234375 145.46632813 28.33234375 146.69726562 27.51171875 C150.20814705 24.25773109 151.57164961 20.55034052 153.25976562 16.13671875 C153.91976562 16.13671875 154.57976562 16.13671875 155.25976562 16.13671875 C155.78258769 27.02884512 155.52446979 35.97860199 148.57226562 44.88671875 C143.70450747 50.11276367 137.83509721 53.52576861 131.25976562 56.13671875 C130.26976562 56.79671875 129.27976562 57.45671875 128.25976562 58.13671875 C108.83785686 62.26578597 88.21007413 60.72491912 69.25976562 55.13671875 C67.28634797 54.73255483 65.30721485 54.35479639 63.32226562 54.01171875 C61.88560547 53.76035156 61.88560547 53.76035156 60.41992188 53.50390625 C59.35064453 53.32214844 59.35064453 53.32214844 58.25976562 53.13671875 C58.25976562 52.47671875 58.25976562 51.81671875 58.25976562 51.13671875 C57.25816406 51.07613281 56.2565625 51.01554687 55.22460938 50.953125 C53.88215232 50.8686347 52.5397049 50.78399107 51.19726562 50.69921875 C49.88628906 50.61800781 48.5753125 50.53679687 47.22460938 50.453125 C43.25976562 50.13671875 43.25976562 50.13671875 39.98632812 49.6171875 C25.53414303 47.75385546 8.15308825 47.27999673 -5.17773438 53.82421875 C-6.02335937 54.58734375 -6.86898437 55.35046875 -7.74023438 56.13671875 C-8.36800781 56.69230469 -8.99578125 57.24789062 -9.64257812 57.8203125 C-13.22286719 61.34388411 -15.21529208 64.02236709 -15.42773438 69.13671875 C-15.05066379 74.14637081 -13.43575261 77.94786463 -10.74023438 82.13671875 C-10.18335938 83.02359375 -9.62648437 83.91046875 -9.05273438 84.82421875 C-5.75163912 88.12531401 -1.8870063 90.05447217 2.25976562 92.13671875 C2.25976562 92.79671875 2.25976562 93.45671875 2.25976562 94.13671875 C-7.77257698 91.15609522 -15.81133419 87.35727124 -23.55273438 80.26171875 C-24.09188477 79.76808838 -24.63103516 79.27445801 -25.18652344 78.76586914 C-28.92910656 75.20623351 -31.91749593 71.46735259 -34.74023438 67.13671875 C-34.74023438 66.47671875 -34.74023438 65.81671875 -34.74023438 65.13671875 C-35.40023437 65.13671875 -36.06023437 65.13671875 -36.74023438 65.13671875 C-44.22733426 53.51880513 -45.76168009 39.58085492 -43.15429688 26.109375 C-40.46640303 18.30461901 -34.29784078 11.05872819 -27.30273438 6.69921875 C-20.59190414 3.75587216 -13.98427023 2.06148929 -6.74023438 1.13671875 C-4.91907354 -0.68444208 -2.42110413 0.00428894 0 0 Z " fill="#0B82BD" transform="translate(197.740234375,260.86328125)"/>
<path d="M0 0 C1.07443359 -0.00128906 2.14886719 -0.00257813 3.25585938 -0.00390625 C4.93325195 0.00189453 4.93325195 0.00189453 6.64453125 0.0078125 C7.74345703 0.00394531 8.84238281 0.00007812 9.97460938 -0.00390625 C19.42429863 0.0073635 27.89199751 0.63786324 36.89453125 3.5703125 C37.95317383 3.89612305 37.95317383 3.89612305 39.03320312 4.22851562 C44.19419643 5.86997768 44.19419643 5.86997768 46.45703125 8.1328125 C48.52577159 8.775336 48.52577159 8.775336 50.45703125 9.1328125 C50.45703125 9.7928125 50.45703125 10.4528125 50.45703125 11.1328125 C51.26140625 11.3803125 52.06578125 11.6278125 52.89453125 11.8828125 C57.20027268 13.39359897 61.31067132 15.23470106 65.45703125 17.1328125 C65.45703125 17.7928125 65.45703125 18.4528125 65.45703125 19.1328125 C66.57078125 19.3803125 67.68453125 19.6278125 68.83203125 19.8828125 C72.45703125 21.1328125 72.45703125 21.1328125 73.51953125 23.1328125 C73.82890625 23.7928125 74.13828125 24.4528125 74.45703125 25.1328125 C76.44426393 25.83662407 78.44481078 26.5039936 80.45703125 27.1328125 C81.44703125 28.6178125 81.44703125 28.6178125 82.45703125 30.1328125 C81.04021491 29.82099181 79.62358474 29.50832513 78.20703125 29.1953125 C77.02367187 28.93427734 77.02367187 28.93427734 75.81640625 28.66796875 C74.4162345 28.35038012 73.02076385 28.00773745 71.640625 27.61206055 C55.33689131 24.03377016 36.09192891 27.40538074 20.47265625 32.484375 C18.45703125 33.1328125 18.45703125 33.1328125 16.25390625 33.53125 C15.36445313 33.82902344 15.36445313 33.82902344 14.45703125 34.1328125 C14.12703125 35.1228125 13.79703125 36.1128125 13.45703125 37.1328125 C11.49609375 38.51953125 11.49609375 38.51953125 9.08203125 39.8203125 C8.29054687 40.25730469 7.4990625 40.69429687 6.68359375 41.14453125 C4.45703125 42.1328125 4.45703125 42.1328125 1.45703125 42.1328125 C1.45703125 42.7928125 1.45703125 43.4528125 1.45703125 44.1328125 C-0.52296875 44.7928125 -2.50296875 45.4528125 -4.54296875 46.1328125 C-4.54296875 46.7928125 -4.54296875 47.4528125 -4.54296875 48.1328125 C-13.27567992 51.65948432 -23.97771049 53.17951199 -33.13671875 50.32421875 C-39.45114018 46.81485761 -43.36863304 40.51554061 -45.6875 33.8359375 C-46.59088518 29.92539344 -46.88625837 26.24891666 -46.85546875 22.2578125 C-46.85417969 21.56107422 -46.85289062 20.86433594 -46.8515625 20.14648438 C-46.74785431 14.57216938 -45.72527728 10.22486574 -43.54296875 5.1328125 C-42.41796875 8.8828125 -42.41796875 8.8828125 -43.54296875 11.1328125 C-43.61478696 13.85041358 -43.63596381 16.54140638 -43.60546875 19.2578125 C-43.60095703 20.01191406 -43.59644531 20.76601562 -43.59179688 21.54296875 C-43.58000374 23.40628377 -43.56206817 25.26955805 -43.54296875 27.1328125 C-42.88296875 27.1328125 -42.22296875 27.1328125 -41.54296875 27.1328125 C-41.26453125 25.8953125 -41.26453125 25.8953125 -40.98046875 24.6328125 C-37.38527954 15.87930834 -29.41407204 9.48138016 -21.04296875 5.4453125 C-19.31046875 4.795625 -19.31046875 4.795625 -17.54296875 4.1328125 C-16.85847656 3.86597656 -16.17398438 3.59914062 -15.46875 3.32421875 C-10.17343013 1.27852217 -5.73418565 0.00667376 0 0 Z " fill="#64D6E9" transform="translate(183.54296875,203.8671875)"/>
<path d="M0 0 C1.83667236 0.00519653 1.83667236 0.00519653 3.71044922 0.01049805 C16.74329286 0.16616287 28.95045081 2.02982448 41.3125 6.3125 C41.3125 6.9725 41.3125 7.6325 41.3125 8.3125 C41.97894531 8.45945313 42.64539063 8.60640625 43.33203125 8.7578125 C58.23487215 12.38451784 70.05753036 21.25994876 81.25 31.4375 C81.79382324 31.92814941 82.33764648 32.41879883 82.89794922 32.92431641 C87.22371543 36.95082425 90.80379993 40.73646651 91.984375 46.71484375 C92.19124894 56.0758895 92.19124894 56.0758895 89.5859375 59.7421875 C84.22066144 64.44412034 80.4382445 65.69368944 73.37109375 65.57421875 C62.23257213 64.62111409 54.56443015 58.18734296 46.3125 51.3125 C45.46099365 50.63936768 45.46099365 50.63936768 44.59228516 49.95263672 C43.12914622 48.78358314 41.71607778 47.55243194 40.3125 46.3125 C40.3125 45.6525 40.3125 44.9925 40.3125 44.3125 C39.59449219 44.08820313 38.87648438 43.86390625 38.13671875 43.6328125 C34.67346708 42.01375432 32.74428032 39.96540734 30.125 37.1875 C25.18748115 32.07851048 20.00862229 27.57557886 14.3125 23.3125 C13.4771875 22.67183594 12.641875 22.03117187 11.78125 21.37109375 C7.24270693 18.01621392 3.1050722 15.47476934 -2.36181641 13.98828125 C-4.6875 13.3125 -4.6875 13.3125 -6.63037109 12.54077148 C-13.33065862 9.90232049 -19.62491394 9.96465473 -26.75 10.125 C-27.90177734 10.13853516 -29.05355469 10.15207031 -30.24023438 10.16601562 C-33.05648972 10.20107275 -35.87173765 10.25021144 -38.6875 10.3125 C-38.0275 9.3225 -37.3675 8.3325 -36.6875 7.3125 C-36.0275 7.3125 -35.3675 7.3125 -34.6875 7.3125 C-34.6875 6.6525 -34.6875 5.9925 -34.6875 5.3125 C-23.25177874 1.11940221 -12.1413911 -0.05612482 0 0 Z " fill="#0D84BD" transform="translate(244.6875,136.6875)"/>
<path d="M0 0 C0.99 0.495 0.99 0.495 2 1 C0.35723988 2.69575238 -1.30892064 4.3528967 -3 6 C-3.89525391 6.88945312 -3.89525391 6.88945312 -4.80859375 7.796875 C-13.25637775 15.78154797 -27.86068831 27 -40 27 C-40 27.66 -40 28.32 -40 29 C-57.25082623 33.47820545 -81.06775609 39.09487545 -97.9921875 31.39453125 C-102.76716155 28.07806095 -104.55960435 24.05517969 -105.75 18.5 C-104.68284939 13.51996381 -102.05964362 10.07094813 -98 7 C-93.65353096 5.88910079 -89.34746368 5.83623919 -84.875 5.8125 C-83.67617187 5.79832031 -82.47734375 5.78414063 -81.2421875 5.76953125 C-78.01221781 5.84967745 -75.02503302 6.36341446 -71.859375 6.99609375 C-63.38045583 8.48818662 -54.85398216 8.29862327 -46.27246094 8.26074219 C-43.37413742 8.2499968 -40.47643004 8.26069985 -37.578125 8.2734375 C-35.70572782 8.27211613 -33.83333102 8.26955421 -31.9609375 8.265625 C-31.1096225 8.26967346 -30.2583075 8.27372192 -29.38119507 8.27789307 C-21.41786675 8.21677413 -13.72323722 7.54272785 -7 3 C-4.69174072 1.84080839 -2.42639979 0.91562256 0 0 Z " fill="#0E84BD" transform="translate(326,329)"/>
<path d="M0 0 C7.93659472 2.30615117 16.70805596 0.85485982 24.52734375 -1.265625 C24.19734375 -0.605625 23.86734375 0.054375 23.52734375 0.734375 C22.86734375 0.734375 22.20734375 0.734375 21.52734375 0.734375 C22.35234375 1.62125 23.17734375 2.508125 24.02734375 3.421875 C27.84615775 8.62837071 26.94426776 14.57316464 26.52734375 20.734375 C26.19734375 20.734375 25.86734375 20.734375 25.52734375 20.734375 C25.52734375 17.104375 25.52734375 13.474375 25.52734375 9.734375 C24.86734375 9.734375 24.20734375 9.734375 23.52734375 9.734375 C23.44484375 10.435625 23.36234375 11.136875 23.27734375 11.859375 C21.9407278 16.98306948 19.08407469 21.00033644 14.52734375 23.734375 C13.86734375 23.734375 13.20734375 23.734375 12.52734375 23.734375 C12.03234375 25.219375 12.03234375 25.219375 11.52734375 26.734375 C5.886027 29.06247477 -0.64105401 29.0887568 -6.66015625 29.046875 C-7.89245972 29.04167847 -7.89245972 29.04167847 -9.1496582 29.03637695 C-19.40769632 28.85581633 -29.00241523 26.71187623 -38.47265625 22.734375 C-38.47265625 22.074375 -38.47265625 21.414375 -38.47265625 20.734375 C-39.06691406 20.64800781 -39.66117187 20.56164062 -40.2734375 20.47265625 C-47.26090536 19.28815548 -53.1507332 16.88523761 -59.47265625 13.734375 C-60.23835938 13.3528125 -61.0040625 12.97125 -61.79296875 12.578125 C-62.34726562 12.2996875 -62.9015625 12.02125 -63.47265625 11.734375 C-60.75944966 10.3777717 -59.44410595 11.13846353 -56.47265625 11.734375 C-48.28102179 12.10554495 -40.33577144 12.31022308 -32.47265625 9.734375 C-31.75722656 9.56292969 -31.04179687 9.39148438 -30.3046875 9.21484375 C-25.36516516 7.96586176 -21.29614922 6.12654912 -16.92944336 3.56298828 C-10.97183016 0.08876694 -6.88767557 -2.2462303 0 0 Z " fill="#66D7EA" transform="translate(327.47265625,267.265625)"/>
<path d="M0 0 C0.66 0.33 1.32 0.66 2 1 C1.67 1.33 1.34 1.66 1 2 C1.96486328 1.96072388 1.96486328 1.96072388 2.94921875 1.9206543 C19.11371709 1.35138033 33.30536928 1.34425214 47 11 C47.74121094 11.47179687 48.48242188 11.94359375 49.24609375 12.4296875 C54.97930672 16.21095095 59.99093069 20.57678438 65 25.25 C65.6592749 25.86472168 66.3185498 26.47944336 66.99780273 27.11279297 C69.69579779 29.6679757 71.92538865 31.88808298 74 35 C72.64267884 34.593727 71.28930311 34.1742721 69.9375 33.75 C69.18339844 33.51796875 68.42929687 33.2859375 67.65234375 33.046875 C65 32 65 32 61.8828125 30.05859375 C57.21600763 27.3192039 52.18805 26.40475488 46.9375 25.3125 C45.97005859 25.10044922 45.00261719 24.88839844 44.00585938 24.66992188 C37.24084337 23.20208473 30.73714939 21.89139875 23.7890625 21.859375 C22.04496094 21.83037109 22.04496094 21.83037109 20.265625 21.80078125 C17.84652081 21.76703838 15.4271506 21.74870643 13.0078125 21.74609375 C4.41900756 21.56557683 -0.89628078 20.10371922 -7 14 C-7.75412844 8.97247706 -7.75412844 8.97247706 -7 6 C-4.95038157 3.56703648 -2.63109835 1.7719642 0 0 Z " fill="#6FDEED" transform="translate(206,144)"/>
<path d="M0 0 C0.66 0.33 1.32 0.66 2 1 C-0.85276137 3.93200474 -3.65079784 6.64315404 -7 9 C-7 8.01 -7 7.02 -7 6 C-8.32 5.67 -9.64 5.34 -11 5 C-9.21289414 4.13633178 -7.4201535 3.28431406 -5.625 2.4375 C-4.62726563 1.96183594 -3.62953125 1.48617188 -2.6015625 0.99609375 C-1.74304688 0.66738281 -0.88453125 0.33867187 0 0 Z " fill="#3E9DCA" transform="translate(326,329)"/>
<path d="M0 0 C6.10642479 -0.78287497 10.00459579 1.89174849 15 5 C15 5.66 15 6.32 15 7 C9.76727367 5.36041242 4.84803364 3.61047965 0 1 C0 0.67 0 0.34 0 0 Z " fill="#4EA5CF" transform="translate(185,348)"/>
<path d="M0 0 C5.52677733 -0.19392201 9.75614911 0.2520497 15 2 C15 2.33 15 2.66 15 3 C9.47322267 3.19392201 5.24385089 2.7479503 0 1 C0 0.67 0 0.34 0 0 Z " fill="#54A8D0" transform="translate(271,316)"/>
</svg>
