<svg xmlns="http://www.w3.org/2000/svg" viewBox="0 0 2000 2000"><path fill="#c4442c" d="M954 38.109C663.521 52.356 399.202 193.781 225.305 428c-251.382 338.583-250.855 808.286 1.286 1145.656C396.924 1801.564 647.684 1939.085 932 1960.514c249.077 18.773 500.922-63.946 692.5-227.453 314.924-268.78 423.246-707.624 269.436-1091.561C1741.58 261.192 1362.834 18.056 954 38.109M760.266 379.283c.822 1.255 3.848 6.543 6.724 11.75 2.876 5.207 5.791 10.142 6.478 10.967.686.825 2.704 4.425 4.485 8 1.781 3.575 3.814 7.175 4.518 8 .704.825 5.217 8.475 10.029 17s9.837 17.413 11.167 19.75l2.417 4.25h385.495l3.961-7.082c2.178-3.894 4.592-8.282 5.365-9.75.773-1.467 3.811-6.632 6.75-11.476 2.94-4.844 5.345-9.053 5.345-9.352 0-.299 2.624-4.886 5.832-10.192a1034.56 1034.56 0 0 0 11.517-19.648c3.127-5.5 6.407-11.012 7.29-12.25l1.605-2.25H758.77l1.496 2.283m.817 105.467c1.236 2.063 2.792 4.425 3.459 5.25.666.825 2.15 3.525 3.298 6 1.147 2.475 3.79 7.273 5.873 10.662 2.083 3.39 5.134 8.565 6.781 11.5 6.072 10.826 8.833 15.596 15.593 26.942 3.802 6.382 6.928 12.007 6.946 12.5.019.493.879 1.91 1.913 3.149l1.879 2.252 192.715-.252 192.716-.253 7.122-12.5c3.917-6.875 7.867-13.625 8.779-15 .911-1.375 2.936-4.852 4.5-7.726 1.563-2.875 7.069-12.55 12.234-21.5 5.165-8.951 10.031-17.503 10.813-19.004.783-1.502 1.844-2.991 2.359-3.309.515-.319.937-1.002.937-1.52 0-.585-90.732-.941-240.082-.941H758.837l2.246 3.75m-60.691 103.5c.9 1.237 1.921 2.925 2.27 3.75.349.825 1.604 2.85 2.79 4.5s3.699 6.15 5.586 10c1.886 3.85 4.201 7.9 5.144 9 .943 1.1 3.815 6.05 6.382 11 2.567 4.95 5.24 9.675 5.94 10.5.7.825 2.537 3.975 4.083 7 1.546 3.025 3.059 5.725 3.362 6 .862.782 2.95 4.212 4.565 7.5.811 1.65 3.053 5.475 4.984 8.5 1.93 3.025 4.881 8.2 6.557 11.5 1.677 3.3 5.067 9.15 7.534 13 2.467 3.85 5.719 9.49 7.226 12.533 1.507 3.043 3.667 6.868 4.8 8.5 1.133 1.632 2.387 3.642 2.788 4.467.401.825 2.033 3.75 3.626 6.5 1.594 2.75 4.068 7.025 5.499 9.5 1.431 2.475 3.694 6.3 5.03 8.5 1.335 2.2 3.075 5.35 3.865 7 .791 1.65 2.571 4.518 3.955 6.373 1.385 1.856 2.793 4.631 3.131 6.167.337 1.536 1.261 3.041 2.052 3.345.791.304 1.439 1.207 1.439 2.007s1.047 2.727 2.327 4.281c1.28 1.555 3.379 5.077 4.665 7.827 2.113 4.518 6.415 11.773 10.97 18.5.932 1.375 2.223 4.035 2.87 5.911.647 1.876 2.232 4.801 3.522 6.5 1.291 1.699 4.034 6.239 6.097 10.089 2.062 3.85 4.314 7.675 5.003 8.5.689.825 1.921 2.85 2.736 4.5 1.745 3.529 3.573 6.717 11.169 19.471 3.103 5.209 5.641 9.799 5.641 10.2 0 .401 1.462 2.876 3.25 5.5 3.182 4.672 8.232 13.679 11.219 20.011.825 1.75 1.995 3.487 2.599 3.86.603.373 1.988 2.541 3.076 4.818 2.492 5.215 4.989 9.707 8.028 14.437 4.172 6.497 4.816 7.622 6.704 11.717 1.018 2.208 2.587 4.626 3.487 5.373.901.747 1.637 1.915 1.637 2.596s1.08 2.829 2.4 4.774c1.32 1.945 2.722 4.596 3.116 5.89.394 1.294 1.788 3.785 3.099 5.535 1.31 1.75 2.822 4.337 3.359 5.75.537 1.412 1.347 2.568 1.8 2.568.453 0 1.432 1.688 2.174 3.75.742 2.063 2.354 5.1 3.581 6.75 1.228 1.65 3.801 5.925 5.718 9.5 1.917 3.575 4.88 8.75 6.584 11.5 1.704 2.75 3.938 6.575 4.965 8.5 3.128 5.865 6.366 11.437 7.358 12.659.517.638 2.181 3.563 3.696 6.5 1.516 2.938 4.07 7.366 5.677 9.841 3.409 5.25 4.024 6.339 8.468 15 1.835 3.575 3.891 7.175 4.569 8 1.244 1.514 4.44 6.929 7.409 12.554.886 1.679 2.594 4.433 3.794 6.119 1.201 1.686 2.668 4.137 3.26 5.446.592 1.31 2.161 4.181 3.487 6.381s3.381 5.8 4.565 8c1.185 2.2 2.702 4.675 3.373 5.5.67.825 1.817 3.075 2.548 5 .731 1.925 2 4.287 2.82 5.25 1.301 1.528 1.307 1.972.045 3.5-.794.963-2.326 3.515-3.405 5.671-4.681 9.363-6.716 13.111-7.374 13.579-.387.275-2.471 3.65-4.632 7.5-2.16 3.85-4.478 7.9-5.151 9-.673 1.1-1.795 3.125-2.493 4.5s-1.503 2.725-1.79 3c-.286.275-1.599 2.525-2.919 5-1.319 2.475-2.953 5.175-3.631 6-.678.825-2.709 4.425-4.512 8-1.803 3.575-4.332 7.932-5.618 9.683-1.287 1.751-2.34 3.486-2.34 3.856 0 .37-3.103 5.912-6.896 12.317-3.793 6.404-8.18 13.957-9.75 16.784a491.575 491.575 0 0 1-6.354 11c-4.165 6.974-6.442 10.971-8.178 14.36-.705 1.375-1.515 2.725-1.802 3-.92.884-2.993 4.394-5.02 8.5-1.984 4.019-2.346 4.645-6.937 12-3.385 5.422-5.463 9.176-7.969 14.396-1.161 2.417-2.712 4.892-3.448 5.5-.735.607-1.939 2.679-2.674 4.604-.735 1.925-2.155 4.573-3.155 5.885-.999 1.312-1.817 2.999-1.817 3.75 0 .751-.456 1.365-1.013 1.365-.557 0-2.02 2.138-3.25 4.75s-2.77 5.315-3.421 6.006c-.652.691-1.5 2.266-1.885 3.5s-1.893 4.044-3.351 6.244c-3.642 5.494-4.896 7.587-6.294 10.5-.66 1.375-3.019 5.556-5.243 9.291-2.224 3.735-4.979 8.46-6.123 10.5a775.381 775.381 0 0 1-4.25 7.459 1433.67 1433.67 0 0 0-4.021 7c-1.017 1.787-4.866 8.425-8.552 14.75-7.123 12.223-8.325 14.324-10.024 17.514-.59 1.108-2.034 3.358-3.209 5-1.174 1.642-2.853 4.561-3.73 6.486-1.665 3.657-2.393 4.916-6.647 11.5-1.421 2.2-4.104 6.925-5.961 10.5-1.857 3.575-4.197 7.737-5.201 9.25a1576.747 1576.747 0 0 0-3.63 5.5c-.993 1.513-2.417 4.325-3.165 6.25-.748 1.925-1.952 4.202-2.677 5.059-1.326 1.569-5.262 8.297-7.571 12.941-.683 1.375-2.489 4.255-4.012 6.4-1.524 2.145-2.77 4.459-2.77 5.143 0 .684-.617 1.48-1.371 1.769-.755.29-1.683 1.8-2.063 3.357-.621 2.538-2.017 5.007-7.537 13.331-.912 1.375-2.711 4.75-3.998 7.5-1.287 2.75-3.74 7.025-5.452 9.5-1.712 2.475-3.673 5.625-4.358 7-1.321 2.65-2.508 4.737-11.538 20.285-3.126 5.382-5.683 10.025-5.683 10.317 0 .292-1.061 1.964-2.358 3.715-1.296 1.751-3.014 4.533-3.816 6.183-1.874 3.855-4.025 7.6-5.456 9.5-.622.825-2.813 4.65-4.869 8.5-2.057 3.85-4.735 8.575-5.951 10.5-5.755 9.111-7.265 11.744-8.532 14.877-.751 1.857-3.364 6.357-5.807 10l-4.441 6.623 299.78.252c164.879.138 299.998.034 300.264-.232.266-.266-.607-2.179-1.94-4.252-3.503-5.446-4.448-7.084-7.948-13.768-1.728-3.3-3.49-6.225-3.915-6.5-.426-.275-2.542-3.875-4.703-8-2.16-4.125-5.04-9.3-6.398-11.5-2.837-4.595-3.463-5.65-8.606-14.5-2.078-3.575-4.331-7.4-5.007-8.5-.676-1.1-2.138-3.8-3.249-6-1.111-2.2-4.026-7.15-6.477-11-2.451-3.85-4.743-8.237-5.093-9.75-.35-1.513-1.045-2.75-1.544-2.75-.499 0-1.518-1.462-2.266-3.25-.747-1.787-2.103-3.868-3.013-4.622-.91-.755-1.655-1.932-1.655-2.616 0-.683-.916-2.407-2.036-3.83-1.119-1.424-2.551-4.067-3.181-5.874-.63-1.807-2.173-4.394-3.429-5.749-1.256-1.355-2.56-3.722-2.898-5.261-.338-1.539-1.008-2.798-1.489-2.798-.48 0-1.812-2.121-2.958-4.713-1.147-2.593-2.69-5.405-3.429-6.25-.739-.846-2.832-4.462-4.652-8.037-1.82-3.575-4.348-7.892-5.619-9.594-1.27-1.702-2.309-3.478-2.309-3.947 0-.468-1.05-2.451-2.333-4.405-3.614-5.507-12.076-20.109-14.23-24.554-1.065-2.2-2.904-5.35-4.086-7-2.536-3.541-6.415-10.222-9.581-16.5-1.247-2.475-2.494-4.725-2.769-5-.759-.758-2.762-4.097-4.799-8-1.615-3.096-9.721-16.981-12.259-21-.521-.825-1.397-2.543-1.947-3.818-.549-1.275-2.123-3.793-3.497-5.595-1.375-1.802-2.499-3.708-2.499-4.237 0-.529-1.101-2.454-2.448-4.279-1.346-1.825-2.732-4.612-3.079-6.194-.348-1.582-1.012-2.877-1.478-2.877-.988 0-4.884-6.357-8.313-13.567-1.325-2.786-3.977-7.296-5.893-10.022s-4.026-6.598-4.688-8.604c-.662-2.006-1.816-4.156-2.566-4.778-.749-.622-2.329-3.02-3.51-5.33a160.274 160.274 0 0 0-4.566-8.199c-1.331-2.2-2.721-4.675-3.091-5.5-.37-.825-1.227-2.175-1.906-3-.679-.825-2.561-3.975-4.182-7-3.981-7.43-7.327-13.289-8.28-14.5-.744-.945-1.776-2.731-7.8-13.5-1.385-2.475-3.501-6.075-4.703-8-1.202-1.925-3.026-5.3-4.053-7.5-1.027-2.2-2.448-4.595-3.156-5.321-.708-.727-1.288-1.91-1.288-2.628 0-.718-.702-1.889-1.56-2.601-.858-.712-2.374-2.904-3.369-4.872-.996-1.968-2.61-5.153-3.587-7.078-.977-1.925-2.348-4.175-3.047-5-1.512-1.785-5.724-9.126-7.996-13.935-.893-1.89-3.283-5.94-5.312-9-2.03-3.061-4.308-7.14-5.064-9.065-.755-1.925-1.976-3.997-2.711-4.604-.736-.608-2.262-3.195-3.393-5.75-1.13-2.555-2.435-4.646-2.899-4.646-.465 0-1.124-1.109-1.464-2.465-.34-1.356-1.851-4.393-3.358-6.75-4.935-7.718-5.245-8.244-7.24-12.285-2.175-4.406-3.425-6.483-6.656-11.064-1.189-1.684-2.892-4.609-3.785-6.5-2.5-5.294-6.56-12.252-8.241-14.124-1.366-1.522-1.26-2.021 1.084-5.094 1.429-1.874 2.598-3.866 2.598-4.428 0-.561.818-2.093 1.817-3.405 1-1.312 2.443-3.96 3.206-5.885.764-1.925 2.86-5.563 4.657-8.084 1.798-2.521 4.068-6.352 5.045-8.513.976-2.161 2.728-5.273 3.894-6.916 1.165-1.643 2.42-3.958 2.788-5.145.368-1.186 1.285-2.393 2.037-2.682.752-.289 1.669-1.9 2.039-3.581.369-1.681 1.095-3.318 1.613-3.638.518-.321 2.171-2.847 3.673-5.615a483.315 483.315 0 0 1 5.421-9.68c1.479-2.555 3.178-5.717 3.775-7.027.596-1.309 2.085-3.784 3.308-5.5 2.497-3.503 4.436-6.921 7.868-13.869 1.291-2.612 2.647-4.75 3.014-4.75s1.684-2.138 2.927-4.75 3.484-6.56 4.981-8.773c1.496-2.213 5.059-8.288 7.916-13.5s7.84-13.977 11.073-19.477c3.232-5.5 6.198-10.675 6.59-11.5.391-.825.97-1.725 1.285-2 .715-.624 2.98-4.553 4.9-8.5.803-1.65 3.645-6.662 6.316-11.139 2.672-4.476 4.857-8.616 4.857-9.2 0-.584.563-1.421 1.25-1.861.688-.44 2.257-2.938 3.487-5.55 1.23-2.612 2.602-4.75 3.049-4.75.447 0 1.417-1.687 2.155-3.75.739-2.062 2.18-4.823 3.201-6.135 1.022-1.312 1.858-2.999 1.858-3.75 0-.751.427-1.365.949-1.365s2.36-2.812 4.084-6.25c5.465-10.894 6.196-12.209 7.85-14.1 1.67-1.911 4.261-6.658 8.132-14.9 1.227-2.612 2.62-4.75 3.095-4.75.475 0 1.544-1.462 2.377-3.25.832-1.788 2.58-5.05 3.883-7.25 1.304-2.2 5.066-8.725 8.361-14.5 3.295-5.775 7.628-13.356 9.63-16.846 2.001-3.49 3.639-6.715 3.639-7.167 0-.451.338-.97.75-1.154.412-.183 1.84-2.358 3.173-4.833 1.332-2.475 2.969-4.832 3.638-5.237.669-.406 1.509-1.906 1.868-3.334.358-1.429 2.348-5.372 4.422-8.763 2.073-3.391 4.418-7.291 5.21-8.666.791-1.375 1.716-2.725 2.054-3 .339-.275.946-1.559 1.35-2.853.405-1.294 1.703-3.864 2.885-5.71 4.555-7.111 7.535-12.156 10.574-17.902 1.735-3.281 3.768-6.656 4.516-7.5.748-.844 2.105-3.11 3.014-5.035 2.254-4.771 4.639-8.922 7.184-12.5 1.173-1.65 2.877-4.575 3.787-6.5 2.146-4.541 4.922-9.404 8.564-15 1.611-2.475 4.153-6.975 5.651-10 1.497-3.025 4.131-7.525 5.853-10 1.722-2.475 3.467-5.4 3.878-6.5.41-1.1 3.195-6.109 6.188-11.13 2.992-5.022 5.441-9.634 5.441-10.25 0-.616.373-1.12.829-1.12.456 0 1.883-2.25 3.171-5 1.288-2.75 2.666-5 3.062-5 .397 0 1.431-1.687 2.3-3.75 1.521-3.612 4.602-9.214 5.638-10.25 1.014-1.014 3.106-4.578 4.256-7.25.65-1.513 1.485-2.75 1.855-2.75.37 0 .961-1.151 1.314-2.558.353-1.407 2.118-4.67 3.921-7.25 1.803-2.581 3.574-5.48 3.935-6.442.624-1.664-14.05-1.75-299.434-1.75H698.756l1.636 2.25" fill-rule="evenodd"/></svg>