<svg width="1000" height="1000" viewBox="0 0 1000 1000" fill="none" xmlns="http://www.w3.org/2000/svg">
<path d="M1000 500C1000 776.142 776.142 1000 500 1000C223.858 1000 0 776.142 0 500C0 223.858 223.858 0 500 0C776.142 0 1000 223.858 1000 500Z" fill="#00FF9C"/>
<path d="M295.571 637.215C310.463 708.666 372.858 765.592 453.039 781.952V860.854H546.994V782.145C639.657 763.637 708.806 691.011 708.806 604.235C708.806 557.373 700.547 528.747 674.876 500.183C644.781 461.671 598.06 437.9 547.469 428.883V483.836L420.631 395.479L453.513 372.647L547.469 307.415V363.265C547.473 363.256 548.41 362.783 704.937 362.783C690.047 291.332 627.65 234.407 547.469 218.044V139.145H453.513V217.854C360.851 236.36 291.703 308.988 291.703 395.764C291.703 442.626 299.963 471.252 325.631 499.816C355.729 538.327 402.449 562.098 453.039 571.116V516.162L579.877 604.519L546.994 627.35L453.039 692.583V636.734C453.035 636.742 452.099 637.215 295.571 637.215Z" fill="#014F59"/>
<circle cx="502.424" cy="501.58" r="430.958" stroke="#014F59" stroke-width="62.1339"/>
</svg>
