<?xml version="1.0" encoding="UTF-8"?><svg id="Livello_1" xmlns="http://www.w3.org/2000/svg" xmlns:xlink="http://www.w3.org/1999/xlink" viewBox="0 0 1058 1058"><defs><style>.cls-1{fill:#421717;}.cls-2,.cls-3{fill:none;}.cls-3{clip-path:url(#clippath);}.cls-4{fill:#f7e8e8;}</style><clipPath id="clippath"><rect class="cls-2" width="1058" height="1058"/></clipPath></defs><g class="cls-3"><path class="cls-1" d="m529,1058c292.16,0,529-236.84,529-529S821.16,0,529,0,0,236.84,0,529s236.84,529,529,529"/></g><path class="cls-4" d="m481.69,566.2h88.4v89.53h-88.4v-89.53Zm164.18,0h81.05v89.53h-81.05v-89.53Zm-315.04-164.33h75.08v89.68h-75.08v-89.68Zm150.86,0h88.4v89.68h-88.4v-89.68Zm88.4-165.11v90.46h-88.4v-90.46h-75.78v90.46h-75.97v.03h-73.76v238.99h74.64v-.05h75.08v89.53h-150.79v74.65h150.79v90.86h75.78v-90.86h88.4v90.86h75.78v-90.86l155.7-.28v-238.51h-73.51v-.04h-82.19v-89.68h157.01v-74.64h-157.01v-90.46h-75.78Z"/></svg>