<svg width="1000" height="1000" viewBox="0 0 1000 1000" fill="none" xmlns="http://www.w3.org/2000/svg">
<g clip-path="url(#clip0_3_35)">
<circle cx="500" cy="500" r="500" fill="#20A928"/>
<path d="M420.029 781.447C380.582 770.721 347.294 754.388 320.163 732.448C293.256 710.38 274.166 684.953 262.892 656.167C251.842 627.252 250.339 596.962 258.382 565.296L373.552 596.613C370.665 610.012 371.819 622.808 377.015 635.001C382.434 647.065 391.093 657.647 402.992 666.745C414.891 675.843 429.206 682.667 445.936 687.216C463.37 691.957 479.616 693.065 494.676 690.541C509.736 688.016 522.536 682.325 533.078 673.465C543.619 664.606 550.829 653.045 554.707 638.78C558.634 624.34 558.055 610.471 552.971 597.174C548.112 583.749 539.059 571.831 525.814 561.421C512.746 551.059 495.998 543.101 475.57 537.546L425.117 523.827L447.958 439.827L498.411 453.546C515.669 458.239 531.716 459.387 546.551 456.991C561.563 454.643 574.204 449.191 584.473 440.636C594.79 431.905 601.888 420.408 605.767 406.143C609.454 392.584 609.429 379.811 605.69 367.825C602.176 355.711 595.397 345.169 585.355 336.197C575.488 327.273 562.895 320.728 547.574 316.562C532.077 312.348 517.135 311.311 502.747 313.451C488.407 315.414 475.974 320.449 465.448 328.556C454.923 336.663 447.528 347.513 443.265 361.105L333.642 331.297C342.646 300.27 359.009 275.217 382.731 256.136C406.454 237.055 434.751 224.797 467.623 219.362C500.719 213.799 535.758 216.046 572.739 226.101C610.073 236.253 640.896 251.916 665.209 273.089C689.522 294.263 706.29 318.491 715.514 345.774C724.962 372.929 725.72 400.747 717.786 429.228C709.726 459.565 693.433 482.274 668.907 497.354C644.558 512.482 616.496 518.657 584.722 515.88L583.573 520.106C621.983 536.035 648.513 558.096 663.164 586.287C678.039 614.35 680.815 645.176 671.493 678.763C663.289 709.629 646.95 734.594 622.475 753.66C598.177 772.773 568.487 784.936 533.406 790.149C498.325 795.361 460.532 792.46 420.029 781.447Z" fill="white"/>
<path d="M542.472 153.585L632.432 178.047L598.843 301.574L508.882 277.113L542.472 153.585Z" fill="white"/>
<path d="M393.875 700.061L483.836 724.523L450.246 848.051L360.286 823.589L393.875 700.061Z" fill="white"/>
</g>
<defs>
<clipPath id="clip0_3_35">
<rect width="1000" height="1000" fill="white"/>
</clipPath>
</defs>
</svg>
