<svg version="1.1" id="Layer_1" xmlns="http://www.w3.org/2000/svg" xmlns:xlink="http://www.w3.org/1999/xlink" x="0px" y="0px"
	 width="100%" viewBox="0 0 400 400" enable-background="new 0 0 400 400" xml:space="preserve">
<path fill="#20A928" opacity="1.000000" stroke="none" 
	d="
M401.000000,173.000000 
	C401.000000,191.354233 401.000000,209.708450 400.587708,228.461487 
	C399.812988,229.367401 399.259460,229.825882 399.116180,230.388794 
	C395.724152,243.713455 393.347260,257.388123 388.835632,270.318726 
	C376.046600,306.972748 353.523315,337.026489 322.749481,360.417999 
	C295.635956,381.027283 265.173492,394.616516 231.049606,399.096558 
	C230.296097,399.195496 229.680130,400.342102 229.000000,401.000000 
	C210.645767,401.000000 192.291550,401.000000 173.538605,400.587738 
	C172.632706,399.813080 172.174164,399.259613 171.611206,399.116302 
	C158.285934,395.724091 144.610992,393.346222 131.679337,388.835358 
	C95.023270,376.048828 64.969261,353.522552 41.579121,322.749512 
	C20.971699,295.637543 7.378981,265.175049 2.903090,231.050186 
	C2.804245,230.296555 1.657773,229.680328 0.999998,229.000000 
	C1.000000,210.645767 1.000000,192.291550 1.412282,173.538330 
	C2.186867,172.632233 2.740187,172.173721 2.883479,171.610840 
	C6.275146,158.287445 8.652325,144.614273 13.162878,131.684601 
	C25.950184,95.029289 48.474457,64.976006 79.247139,41.583046 
	C106.360664,20.971727 136.825943,7.386538 170.949341,2.902928 
	C171.703232,2.803871 172.319519,1.657712 173.000000,1.000001 
	C191.354233,1.000000 209.708450,1.000000 228.461960,1.412254 
	C229.368423,2.186789 229.826996,2.740054 230.389923,2.883356 
	C243.715088,6.275417 257.390411,8.652049 270.321350,13.164142 
	C306.974823,25.953911 337.028290,48.477535 360.419434,79.251343 
	C381.028198,106.364571 394.615814,136.827332 399.096680,170.950226 
	C399.195648,171.703796 400.342133,172.319809 401.000000,173.000000 
M223.520645,180.567856 
	C221.043381,180.807541 218.508942,181.503342 216.099548,181.201447 
	C208.850388,180.293060 201.625610,179.125702 194.444153,177.777832 
	C192.044449,177.327438 190.260620,176.906845 189.468933,179.904999 
	C187.025223,189.159332 184.496735,198.391266 182.045822,207.466492 
	C190.359207,210.814499 198.305374,213.742859 206.011658,217.205170 
	C212.049591,219.917892 217.166061,224.115875 219.851440,230.343948 
	C225.553055,243.567413 222.536163,256.012329 214.668228,267.136719 
	C207.493332,277.281189 196.747894,280.534698 184.665207,278.910522 
	C173.558212,277.417511 158.554810,268.995239 157.340530,253.856979 
	C156.884460,248.171234 158.242706,242.357544 158.449524,236.590546 
	C158.513748,234.799332 157.913864,231.655899 156.936142,231.356201 
	C143.621994,227.275192 130.187927,223.585510 116.559746,219.736160 
	C113.454018,236.238449 110.813492,252.218399 116.175369,268.415894 
	C122.697823,288.119385 137.475204,299.449890 155.613190,307.377045 
	C153.630768,315.033875 151.809921,322.066589 149.871140,329.554840 
	C162.179108,332.810516 174.114395,335.967590 186.267654,339.182343 
	C188.312042,331.723450 190.188904,324.875763 192.092361,317.931061 
	C194.394867,317.931061 196.381042,317.875000 198.363312,317.939453 
	C228.620239,318.923096 254.244904,297.919037 264.014496,272.714600 
	C272.381836,251.127899 271.805939,230.373505 256.372131,211.645218 
	C254.530655,209.410660 252.443512,207.378555 250.211807,204.974152 
	C274.413574,197.610031 286.746002,180.538071 288.673401,156.546936 
	C290.987396,127.743790 275.274506,109.068466 251.028488,96.114975 
	C252.859238,88.845955 254.658600,81.701485 256.494781,74.410904 
	C244.030167,71.108459 232.350967,68.014107 220.233337,64.803589 
	C218.259995,71.950554 216.378769,78.763901 214.429901,85.822273 
	C197.263077,84.535995 182.176315,88.825211 168.783676,99.764374 
	C155.621277,110.515488 148.375305,124.474686 143.244797,140.404205 
	C157.020355,144.240219 170.089615,147.879547 183.053253,151.489456 
	C195.744263,126.063019 202.610214,120.956779 219.524582,124.051559 
	C232.820953,126.484367 241.962463,135.732376 242.943817,147.743729 
	C244.158447,162.609909 236.721390,175.571091 223.520645,180.567856 
z"/>
<path fill="#000000" opacity="1.000000" stroke="none" 
	d="
M172.531342,1.000001 
	C172.319519,1.657712 171.703232,2.803871 170.949341,2.902928 
	C136.825943,7.386538 106.360664,20.971727 79.247139,41.583046 
	C48.474457,64.976006 25.950184,95.029289 13.162878,131.684601 
	C8.652325,144.614273 6.275146,158.287445 2.883479,171.610840 
	C2.740187,172.173721 2.186867,172.632233 1.412282,173.069672 
	C1.000000,115.739647 1.000000,58.479294 1.000000,1.000000 
	C58.020706,1.000000 115.041695,1.000000 172.531342,1.000001 
z"/>
<path fill="#000000" opacity="1.000000" stroke="none" 
	d="
M401.000000,172.531342 
	C400.342133,172.319809 399.195648,171.703796 399.096680,170.950226 
	C394.615814,136.827332 381.028198,106.364571 360.419434,79.251343 
	C337.028290,48.477535 306.974823,25.953911 270.321350,13.164142 
	C257.390411,8.652049 243.715088,6.275417 230.389923,2.883356 
	C229.826996,2.740054 229.368423,2.186789 228.930618,1.412254 
	C286.260345,1.000000 343.520691,1.000000 401.000000,1.000000 
	C401.000000,58.020706 401.000000,115.041695 401.000000,172.531342 
z"/>
<path fill="#000000" opacity="1.000000" stroke="none" 
	d="
M0.999998,229.468658 
	C1.657773,229.680328 2.804245,230.296555 2.903090,231.050186 
	C7.378981,265.175049 20.971699,295.637543 41.579121,322.749512 
	C64.969261,353.522552 95.023270,376.048828 131.679337,388.835358 
	C144.610992,393.346222 158.285934,395.724091 171.611206,399.116302 
	C172.174164,399.259613 172.632706,399.813080 173.069946,400.587738 
	C115.739647,401.000000 58.479294,401.000000 1.000000,401.000000 
	C1.000000,343.979279 1.000000,286.958313 0.999998,229.468658 
z"/>
<path fill="#000000" opacity="1.000000" stroke="none" 
	d="
M229.468658,401.000000 
	C229.680130,400.342102 230.296097,399.195496 231.049606,399.096558 
	C265.173492,394.616516 295.635956,381.027283 322.749481,360.417999 
	C353.523315,337.026489 376.046600,306.972748 388.835632,270.318726 
	C393.347260,257.388123 395.724152,243.713455 399.116180,230.388794 
	C399.259460,229.825882 399.812988,229.367401 400.587708,228.930145 
	C401.000000,286.260345 401.000000,343.520721 401.000000,401.000000 
	C343.979279,401.000000 286.958313,401.000000 229.468658,401.000000 
z"/>
<path fill="#FEFEFE" opacity="1.000000" stroke="none" 
	d="
M223.905945,180.409515 
	C236.721390,175.571091 244.158447,162.609909 242.943817,147.743729 
	C241.962463,135.732376 232.820953,126.484367 219.524582,124.051559 
	C202.610214,120.956779 195.744263,126.063019 183.053253,151.489456 
	C170.089615,147.879547 157.020355,144.240219 143.244797,140.404205 
	C148.375305,124.474686 155.621277,110.515488 168.783676,99.764374 
	C182.176315,88.825211 197.263077,84.535995 214.429901,85.822273 
	C216.378769,78.763901 218.259995,71.950554 220.233337,64.803589 
	C232.350967,68.014107 244.030167,71.108459 256.494781,74.410904 
	C254.658600,81.701485 252.859238,88.845955 251.028488,96.114975 
	C275.274506,109.068466 290.987396,127.743790 288.673401,156.546936 
	C286.746002,180.538071 274.413574,197.610031 250.211807,204.974152 
	C252.443512,207.378555 254.530655,209.410660 256.372131,211.645218 
	C271.805939,230.373505 272.381836,251.127899 264.014496,272.714600 
	C254.244904,297.919037 228.620239,318.923096 198.363312,317.939453 
	C196.381042,317.875000 194.394867,317.931061 192.092361,317.931061 
	C190.188904,324.875763 188.312042,331.723450 186.267654,339.182343 
	C174.114395,335.967590 162.179108,332.810516 149.871140,329.554840 
	C151.809921,322.066589 153.630768,315.033875 155.613190,307.377045 
	C137.475204,299.449890 122.697823,288.119385 116.175369,268.415894 
	C110.813492,252.218399 113.454018,236.238449 116.559746,219.736160 
	C130.187927,223.585510 143.621994,227.275192 156.936142,231.356201 
	C157.913864,231.655899 158.513748,234.799332 158.449524,236.590546 
	C158.242706,242.357544 156.884460,248.171234 157.340530,253.856979 
	C158.554810,268.995239 173.558212,277.417511 184.665207,278.910522 
	C196.747894,280.534698 207.493332,277.281189 214.668228,267.136719 
	C222.536163,256.012329 225.553055,243.567413 219.851440,230.343948 
	C217.166061,224.115875 212.049591,219.917892 206.011658,217.205170 
	C198.305374,213.742859 190.359207,210.814499 182.045822,207.466492 
	C184.496735,198.391266 187.025223,189.159332 189.468933,179.904999 
	C190.260620,176.906845 192.044449,177.327438 194.444153,177.777832 
	C201.625610,179.125702 208.850388,180.293060 216.099548,181.201447 
	C218.508942,181.503342 221.043381,180.807541 223.905945,180.409515 
z"/>
</svg>