<?xml version="1.0" encoding="UTF-8"?>
<svg id="Layer_2" xmlns="http://www.w3.org/2000/svg" width="1446.49" height="326.13"
    viewBox="0 0 1446.49 326.13">
    <defs>
        <style>
            .cls-1,.cls-2{stroke-width:0px;}.cls-1,.cls-3{fill:#0019fc;}.cls-3{font-family:MyriadPro-Bold,
            'Myriad
            Pro';font-size:220.8px;font-weight:700;stroke:#1d1d1b;stroke-miterlimit:10;stroke-width:.25px;}</style>
    </defs>
    <g id="Livello_1">
        <text class="cls-3" transform="translate(97.27 227.87)">
            <tspan x="0" y="0">+</tspan>
        </text>
        <path class="cls-2"
            d="m483.19,102.36h38.88v141.71h-34.46l-3.58-17.09c-9.1,11.03-21.51,18.75-41.63,18.75-29.23,0-56.25-14.61-56.25-64.79v-78.58h38.88v73.34c0,25.37,8.27,37.77,27.57,37.77s30.6-14.06,30.6-40.25v-70.86Z" />
        <path class="cls-2"
            d="m565.62,196.93c1.38,12.41,12.13,20.95,31.16,20.95,16.27,0,26.19-5.24,26.19-15.16,0-11.58-9.65-12.41-32.53-15.44-33.08-3.86-58.73-11.3-58.73-40.53s24.54-46.6,60.93-46.32c38.05,0,64.24,16.82,66.17,45.77h-37.22c-1.1-11.3-11.86-18.2-27.57-18.2s-25.09,5.51-25.09,14.61c0,10.75,12.13,11.86,32.53,14.34,32.53,3.31,59.55,10.75,59.55,42.73,0,28.12-26.47,46.04-64.52,46.04s-66.17-18.47-67.83-48.8h36.95Z" />
        <path class="cls-2"
            d="m770.47,51.08h38.88v193h-33.91l-3.86-19.58c-9.37,12.13-23.16,21.23-43.56,21.23-38.05,0-65.89-27.85-65.89-72.79s27.85-72.24,65.62-72.24c19.57,0,33.64,7.72,42.73,19.3V51.08Zm.55,122.42c0-24.26-13.23-41.08-34.46-41.08s-34.74,16.54-34.74,40.81,13.51,40.8,34.74,40.8,34.46-16.54,34.46-40.53Z" />
        <path class="cls-2"
            d="m817.06,173.22c0-43.84,28.67-72.51,73.61-72.51,38.6,0,62.59,20.95,68.1,54.59h-40.53c-3.31-14.06-12.96-22.88-28.12-22.88-20.4,0-33.36,16.82-33.36,40.81s12.96,40.8,33.36,40.8c15.17,0,25.37-9.1,28.12-23.43h40.81c-5.51,33.91-31.16,55.14-69.76,55.14-44.94,0-72.24-27.85-72.24-72.51Z" />
        <path class="cls-2"
            d="m1156.73,174.05c0,42.46-27.57,71.68-65.9,71.68-26.47,0-45.49-13.51-53.49-33.91v87.4h-14.06V104.29h12.13l2.21,31.98c8.82-19.58,27.02-33.64,53.21-33.64,38.32,0,65.9,27.57,65.9,71.41Zm-14.34,0c0-34.46-21.5-59-52.66-59s-52.66,24.54-52.66,58.73,21.51,59.28,52.66,59.28,52.66-24.26,52.66-59Z" />
        <path class="cls-2" d="m1170.78,51.08h14.06v193h-14.06V51.08Z" />
        <path class="cls-2"
            d="m1305.6,104.29h14.06v139.79h-12.41l-1.93-29.5c-8,17.92-24.26,31.16-49.08,31.16-30.88,0-53.76-19.3-53.76-63.14v-78.3h14.06v77.47c0,33.36,15.99,51.01,41.91,51.01,28.95,0,47.15-23.16,47.15-59.83v-68.65Z" />
        <path class="cls-2"
            d="m1346.95,201.07c1.1,20.13,18.47,32.53,45.22,32.53,22.88,0,40.25-10.48,40.25-27.02,0-20.68-19.02-23.71-42.46-27.02-28.67-3.86-54.59-9.1-54.59-37.22,0-23.99,22.33-39.98,53.49-39.7,30.33,0,52.66,13.79,55.14,41.08h-14.34c-2.48-18.2-18.47-28.95-40.81-28.95-23.71,0-39.43,10.48-39.43,26.47,0,19.58,19.3,22.06,41.08,25.09,30.05,4.14,55.97,9.93,55.97,39.43,0,24.81-24.26,39.98-54.32,39.98-35.02,0-58.45-15.71-59.55-44.67h14.34Z" />
        <path class="cls-1"
            d="m163.06,0C73.01,0,0,73.01,0,163.06s73.01,163.08,163.06,163.08,163.08-73.01,163.08-163.08S253.12,0,163.06,0Zm99.53,199.55c-29.48,15.66-48.1,33.54-62.98,63.64-.15.26-.27.51-.42.77v.02c-7.02,12.7-20.47,20.91-35.38,21.11-.64.04-1.32.02-1.96-.02-.26,0-.49-.02-.75-.02-15.08-.68-28.04-9.47-34.58-22.15-15.66-29.48-33.54-48.12-63.64-62.98-.26-.13-.51-.27-.77-.42h-.02c-28.75-15.86-27.74-57.79,1.33-72.92,29.48-15.68,48.12-33.55,62.98-63.64.15-.26.27-.51.42-.77v-.02c6.71-12.03,18.88-20.01,33.02-20.98.79-.07,1.57-.11,2.36-.13.64-.05,1.32,0,1.96.02.26.02.51.02.75.02,15.08.68,28.04,9.47,34.58,22.15,15.68,29.48,33.55,48.1,63.64,62.98.26.15.51.27.77.42h.02c12.85,7.2,21.09,20.49,21.13,35.84.02,15.42-8.79,30.12-22.46,37.08Z" />
    </g>
</svg>