<?xml version="1.0" encoding="utf-8"?>
<!-- Generator: Adobe Illustrator 27.0.0, SVG Export Plug-In . SVG Version: 6.00 Build 0)  -->
<svg version="1.1" id="Layer_1" xmlns="http://www.w3.org/2000/svg" xmlns:xlink="http://www.w3.org/1999/xlink" x="0px" y="0px"
	 viewBox="0 0 387.43 387.43" style="enable-background:new 0 0 387.43 387.43;" xml:space="preserve">
<style type="text/css">
	.st0{fill:#17DDB7;}
	.st1{fill:#FFFFFF;}
</style>
<g>
	<g>
		
			<ellipse transform="matrix(0.7071 -0.7071 0.7071 0.7071 -93.9997 209.6494)" class="st0" cx="206.07" cy="218.29" rx="99.5" ry="99.5"/>
		<path class="st1" d="M220.35,141.12v10.51c30.76,6.57,53.89,33.95,53.89,66.66s-23.13,60.09-53.89,66.66v10.51
			c36.47-6.73,64.2-38.79,64.2-77.18C284.55,179.9,256.82,147.84,220.35,141.12z M127.59,218.28c0,38.4,27.72,70.45,64.21,77.18
			v-10.51c-30.77-6.57-53.9-33.95-53.9-66.66s23.13-60.09,53.9-66.66v-10.51C155.31,147.84,127.59,179.9,127.59,218.28z"/>
	</g>
	<g>
		<rect x="191.66" y="213.94" class="st1" width="0.08" height="9.79"/>
		<path class="st1" d="M233.29,205.03l-9.79-0.45c0.03-2.78-0.47-6.5-2.69-9.81c-3.26-4.87-9.55-7.89-16.41-7.89
			c-3.63,0-7.08,0.87-9.99,2.53c-2.51,1.42-8.38,5.49-8.68,12.32c-0.16,3.46,1.15,6.95,3.57,9.8v12.24h-0.35
			c-8.43-4.83-13.4-13.43-13-22.49c0.53-11.7,9.7-18.15,13.62-20.38c3.26-1.86,6.93-3.05,10.88-3.52l0.72-0.08v-14.27h9.78v14.82
			l0.64,0.14c7.43,1.71,13.58,5.73,17.35,11.33C231.91,193.75,233.4,199.15,233.29,205.03z"/>
		<rect x="220.35" y="213.98" class="st1" width="0.08" height="9.75"/>
		<path class="st1" d="M236.19,236.46c-0.57,12.26-10.98,18.9-13.62,20.4c-3.28,1.87-6.94,3.05-10.89,3.52l-0.73,0.09v13.09h-9.78
			v-13.64l-0.63-0.15c-7.42-1.71-13.58-5.73-17.34-11.31c-2.97-4.43-4.47-9.86-4.35-15.72l9.78,0.45c-0.02,2.78,0.48,6.52,2.7,9.81
			c3.26,4.87,9.56,7.89,16.42,7.89c3.62,0,7.08-0.87,9.97-2.52c2.51-1.43,8.38-5.5,8.69-12.32c0.15-3.48-1.18-7.01-3.63-9.87v-12.18
			h0.4c0.57,0.33,1.41,0.82,2.35,1.51C226.62,216.29,236.77,223.97,236.19,236.46z"/>
		<g>
			<rect x="201.15" y="204.45" class="st1" width="9.79" height="28.76"/>
			<rect x="191.66" y="213.94" class="st1" width="28.77" height="9.79"/>
		</g>
	</g>
</g>
</svg>
