<?xml version="1.0" encoding="utf-8"?>
<!-- Generator: $$$/GeneralStr/196=Adobe Illustrator 27.6.0, SVG Export Plug-In . SVG Version: 6.00 Build 0)  -->
<svg version="1.1" id="Ebene_1" xmlns="http://www.w3.org/2000/svg" xmlns:xlink="http://www.w3.org/1999/xlink" x="0px" y="0px"
	 viewBox="0 0 500 500" style="enable-background:new 0 0 500 500;" xml:space="preserve">
<style type="text/css">
	.st0{fill:url(#SVGID_1_);}
	.st1{fill:url(#SVGID_00000111158233215818904430000008998161507021967295_);}
</style>
<g>
	<linearGradient id="SVGID_1_" gradientUnits="userSpaceOnUse" x1="99.2058" y1="233.57" x2="244.6018" y2="233.57">
		<stop  offset="0.1188" style="stop-color:#AFBE7B"/>
		<stop  offset="0.242" style="stop-color:#A9B977"/>
		<stop  offset="0.4019" style="stop-color:#99AB6A"/>
		<stop  offset="0.5822" style="stop-color:#7E9456"/>
		<stop  offset="0.7772" style="stop-color:#597439"/>
		<stop  offset="0.9821" style="stop-color:#2A4B14"/>
		<stop  offset="1" style="stop-color:#254711"/>
	</linearGradient>
	<path class="st0" d="M230.8,285.4l13.8-25.8l0,0l-8.5-24.3l-24.6-70.6c-4.4-15-19.2-25-37.1-25h-29.8l19,54.2h-64l-0.2,1.9
		c-1.8,15.7,10.9,28.4,28.5,28.4h46.4l5.2,14.9h-55.6l-0.2,1.9c-1.8,15.7,10.9,28.4,28.5,28.4h38l6.7,19.1l13.6,39.1
		c0.1-0.4,0.3-0.8,0.4-1.2c4.4-12.2,10.2-23,16.3-34.3C228.4,289.9,229.6,287.7,230.8,285.4z"/>
	
		<linearGradient id="SVGID_00000074424394259184878060000008982924105032046727_" gradientUnits="userSpaceOnUse" x1="223.9296" y1="221.9128" x2="400.0348" y2="271.2514">
		<stop  offset="0.1334" style="stop-color:#5A7907"/>
		<stop  offset="0.7022" style="stop-color:#9FB18A"/>
	</linearGradient>
	<path style="fill:url(#SVGID_00000074424394259184878060000008982924105032046727_);" d="M373,105.2c-17.9,0-35.1,10-43,25.1
		l-59,112.2c-8.7,16.3-17.4,32.6-26,48.9c-9.1,17-17.8,31.6-22.4,49.9c-6,23.9,8.3,39.5,25,53.4l77.4-149.5l75.9-140H373z"/>
</g>
</svg>
